<?xml version="1.0" encoding="us-ascii" standalone="no"?><svg xmlns="http://www.w3.org/2000/svg" xmlns:xlink="http://www.w3.org/1999/xlink" contentStyleType="text/css" height="457px" preserveAspectRatio="none" style="width:1734px;height:457px;background:#FFFFFF;" version="1.1" viewBox="0 0 1734 457" width="1734px" zoomAndPan="magnify"><defs/><g><line style="stroke:#181818;stroke-width:0.5;stroke-dasharray:5.0,5.0;" x1="32" x2="32" y1="82.6094" y2="375.7734"/><line style="stroke:#181818;stroke-width:0.5;stroke-dasharray:5.0,5.0;" x1="186.5" x2="186.5" y1="82.6094" y2="375.7734"/><line style="stroke:#181818;stroke-width:0.5;stroke-dasharray:5.0,5.0;" x1="297.5" x2="297.5" y1="82.6094" y2="375.7734"/><line style="stroke:#181818;stroke-width:0.5;stroke-dasharray:5.0,5.0;" x1="537" x2="537" y1="82.6094" y2="375.7734"/><line style="stroke:#181818;stroke-width:0.5;stroke-dasharray:5.0,5.0;" x1="761" x2="761" y1="82.6094" y2="375.7734"/><line style="stroke:#181818;stroke-width:0.5;stroke-dasharray:5.0,5.0;" x1="1094" x2="1094" y1="82.6094" y2="375.7734"/><line style="stroke:#181818;stroke-width:0.5;stroke-dasharray:5.0,5.0;" x1="1276" x2="1276" y1="82.6094" y2="375.7734"/><line style="stroke:#181818;stroke-width:0.5;stroke-dasharray:5.0,5.0;" x1="1657.5" x2="1657.5" y1="82.6094" y2="375.7734"/><text fill="#000000" font-family="sans-serif" font-size="14" lengthAdjust="spacing" textLength="48" x="5" y="79.5332">Curator</text><ellipse cx="32" cy="13.5" fill="#E2E2F0" rx="8" ry="8" style="stroke:#181818;stroke-width:0.5;"/><path d="M32,21.5 L32,48.5 M19,29.5 L45,29.5 M32,48.5 L19,63.5 M32,48.5 L45,63.5 " fill="none" style="stroke:#181818;stroke-width:0.5;"/><text fill="#000000" font-family="sans-serif" font-size="14" lengthAdjust="spacing" textLength="48" x="5" y="389.3066">Curator</text><ellipse cx="32" cy="400.8828" fill="#E2E2F0" rx="8" ry="8" style="stroke:#181818;stroke-width:0.5;"/><path d="M32,408.8828 L32,435.8828 M19,416.8828 L45,416.8828 M32,435.8828 L19,450.8828 M32,435.8828 L45,450.8828 " fill="none" style="stroke:#181818;stroke-width:0.5;"/><rect fill="#E2E2F0" height="31.6094" rx="2.5" ry="2.5" style="stroke:#181818;stroke-width:0.5;" width="109" x="132.5" y="50"/><text fill="#000000" font-family="sans-serif" font-size="14" lengthAdjust="spacing" textLength="95" x="139.5" y="71.5332">ingest-gateway</text><rect fill="#E2E2F0" height="31.6094" rx="2.5" ry="2.5" style="stroke:#181818;stroke-width:0.5;" width="109" x="132.5" y="374.7734"/><text fill="#000000" font-family="sans-serif" font-size="14" lengthAdjust="spacing" textLength="95" x="139.5" y="396.3066">ingest-gateway</text><rect fill="#E2E2F0" height="31.6094" rx="2.5" ry="2.5" style="stroke:#181818;stroke-width:0.5;" width="93" x="251.5" y="50"/><text fill="#000000" font-family="sans-serif" font-size="14" lengthAdjust="spacing" textLength="79" x="258.5" y="71.5332">yt-dl/whisper</text><rect fill="#E2E2F0" height="31.6094" rx="2.5" ry="2.5" style="stroke:#181818;stroke-width:0.5;" width="93" x="251.5" y="374.7734"/><text fill="#000000" font-family="sans-serif" font-size="14" lengthAdjust="spacing" textLength="79" x="258.5" y="396.3066">yt-dl/whisper</text><text fill="#000000" font-family="sans-serif" font-size="14" lengthAdjust="spacing" textLength="44" x="512" y="79.5332">Qdrant</text><path d="M519,29 C519,19 537,19 537,19 C537,19 555,19 555,29 L555,55 C555,65 537,65 537,65 C537,65 519,65 519,55 L519,29 " fill="#E2E2F0" style="stroke:#181818;stroke-width:1.5;"/><path d="M519,29 C519,39 537,39 537,39 C537,39 555,39 555,29 " fill="none" style="stroke:#181818;stroke-width:1.5;"/><text fill="#000000" font-family="sans-serif" font-size="14" lengthAdjust="spacing" textLength="44" x="512" y="389.3066">Qdrant</text><path d="M519,402.3828 C519,392.3828 537,392.3828 537,392.3828 C537,392.3828 555,392.3828 555,402.3828 L555,428.3828 C555,438.3828 537,438.3828 537,438.3828 C537,438.3828 519,438.3828 519,428.3828 L519,402.3828 " fill="#E2E2F0" style="stroke:#181818;stroke-width:1.5;"/><path d="M519,402.3828 C519,412.3828 537,412.3828 537,412.3828 C537,412.3828 555,412.3828 555,402.3828 " fill="none" style="stroke:#181818;stroke-width:1.5;"/><rect fill="#E2E2F0" height="31.6094" rx="2.5" ry="2.5" style="stroke:#181818;stroke-width:0.5;" width="112" x="705" y="50"/><text fill="#000000" font-family="sans-serif" font-size="14" lengthAdjust="spacing" textLength="98" x="712" y="71.5332">rag-summarizer</text><rect fill="#E2E2F0" height="31.6094" rx="2.5" ry="2.5" style="stroke:#181818;stroke-width:0.5;" width="112" x="705" y="374.7734"/><text fill="#000000" font-family="sans-serif" font-size="14" lengthAdjust="spacing" textLength="98" x="712" y="396.3066">rag-summarizer</text><path d="M1045,55 L1143,55 C1148,55 1148,68.8047 1148,68.8047 C1148,68.8047 1148,82.6094 1143,82.6094 L1045,82.6094 C1040,82.6094 1040,68.8047 1040,68.8047 C1040,68.8047 1040,55 1045,55 " fill="#E2E2F0" style="stroke:#181818;stroke-width:0.5;"/><path d="M1143,55 C1138,55 1138,68.8047 1138,68.8047 C1138,82.6094 1143,82.6094 1143,82.6094 " fill="none" style="stroke:#181818;stroke-width:0.5;"/><text fill="#000000" font-family="sans-serif" font-size="14" lengthAdjust="spacing" textLength="88" x="1045" y="74.5332">x:events.norm</text><path d="M1045,374.7734 L1143,374.7734 C1148,374.7734 1148,388.5781 1148,388.5781 C1148,388.5781 1148,402.3828 1143,402.3828 L1045,402.3828 C1040,402.3828 1040,388.5781 1040,388.5781 C1040,388.5781 1040,374.7734 1045,374.7734 " fill="#E2E2F0" style="stroke:#181818;stroke-width:0.5;"/><path d="M1143,374.7734 C1138,374.7734 1138,388.5781 1138,388.5781 C1138,402.3828 1143,402.3828 1143,402.3828 " fill="none" style="stroke:#181818;stroke-width:0.5;"/><text fill="#000000" font-family="sans-serif" font-size="14" lengthAdjust="spacing" textLength="88" x="1045" y="394.3066">x:events.norm</text><rect fill="#E2E2F0" height="31.6094" rx="2.5" ry="2.5" style="stroke:#181818;stroke-width:0.5;" width="116" x="1218" y="50"/><text fill="#000000" font-family="sans-serif" font-size="14" lengthAdjust="spacing" textLength="102" x="1225" y="71.5332">sentiment-agent</text><rect fill="#E2E2F0" height="31.6094" rx="2.5" ry="2.5" style="stroke:#181818;stroke-width:0.5;" width="116" x="1218" y="374.7734"/><text fill="#000000" font-family="sans-serif" font-size="14" lengthAdjust="spacing" textLength="102" x="1225" y="396.3066">sentiment-agent</text><path d="M1593.5,55 L1722.5,55 C1727.5,55 1727.5,68.8047 1727.5,68.8047 C1727.5,68.8047 1727.5,82.6094 1722.5,82.6094 L1593.5,82.6094 C1588.5,82.6094 1588.5,68.8047 1588.5,68.8047 C1588.5,68.8047 1588.5,55 1593.5,55 " fill="#E2E2F0" style="stroke:#181818;stroke-width:0.5;"/><path d="M1722.5,55 C1717.5,55 1717.5,68.8047 1717.5,68.8047 C1717.5,82.6094 1722.5,82.6094 1722.5,82.6094 " fill="none" style="stroke:#181818;stroke-width:0.5;"/><text fill="#000000" font-family="sans-serif" font-size="14" lengthAdjust="spacing" textLength="119" x="1593.5" y="74.5332">x:signals.sentiment</text><path d="M1593.5,374.7734 L1722.5,374.7734 C1727.5,374.7734 1727.5,388.5781 1727.5,388.5781 C1727.5,388.5781 1727.5,402.3828 1722.5,402.3828 L1593.5,402.3828 C1588.5,402.3828 1588.5,388.5781 1588.5,388.5781 C1588.5,388.5781 1588.5,374.7734 1593.5,374.7734 " fill="#E2E2F0" style="stroke:#181818;stroke-width:0.5;"/><path d="M1722.5,374.7734 C1717.5,374.7734 1717.5,388.5781 1717.5,388.5781 C1717.5,402.3828 1722.5,402.3828 1722.5,402.3828 " fill="none" style="stroke:#181818;stroke-width:0.5;"/><text fill="#000000" font-family="sans-serif" font-size="14" lengthAdjust="spacing" textLength="119" x="1593.5" y="394.3066">x:signals.sentiment</text><polygon fill="#181818" points="175,110.9609,185,114.9609,175,118.9609,179,114.9609" style="stroke:#181818;stroke-width:1.0;"/><line style="stroke:#181818;stroke-width:1.0;" x1="32" x2="181" y1="114.9609" y2="114.9609"/><text fill="#000000" font-family="sans-serif" font-size="13" lengthAdjust="spacing" textLength="131" x="39" y="110.1045">submit TV Idea URL(s)</text><polygon fill="#181818" points="749,141.3125,759,145.3125,749,149.3125,753,145.3125" style="stroke:#181818;stroke-width:1.0;"/><line style="stroke:#181818;stroke-width:1.0;" x1="187" x2="755" y1="145.3125" y2="145.3125"/><text fill="#000000" font-family="sans-serif" font-size="13" lengthAdjust="spacing" textLength="181" x="194" y="140.4561">fetch text, extract tickers/levels</text><polygon fill="#181818" points="548,171.6641,538,175.6641,548,179.6641,544,175.6641" style="stroke:#181818;stroke-width:1.0;"/><line style="stroke:#181818;stroke-width:1.0;" x1="542" x2="760" y1="175.6641" y2="175.6641"/><text fill="#000000" font-family="sans-serif" font-size="13" lengthAdjust="spacing" textLength="200" x="554" y="170.8076">upsert chunks (namespace=ideas)</text><polygon fill="#181818" points="1082,202.0156,1092,206.0156,1082,210.0156,1086,206.0156" style="stroke:#181818;stroke-width:1.0;"/><line style="stroke:#181818;stroke-width:1.0;" x1="761" x2="1088" y1="206.0156" y2="206.0156"/><text fill="#000000" font-family="sans-serif" font-size="13" lengthAdjust="spacing" textLength="280" x="768" y="201.1592">Event(kind=idea, symbols, stance?, provenance)</text><polygon fill="#181818" points="525,232.3672,535,236.3672,525,240.3672,529,236.3672" style="stroke:#181818;stroke-width:1.0;"/><line style="stroke:#181818;stroke-width:1.0;" x1="298" x2="531" y1="236.3672" y2="236.3672"/><text fill="#000000" font-family="sans-serif" font-size="13" lengthAdjust="spacing" textLength="215" x="305" y="231.5107">upsert chunks (namespace=youtube)</text><polygon fill="#181818" points="1082,262.7188,1092,266.7188,1082,270.7188,1086,266.7188" style="stroke:#181818;stroke-width:1.0;"/><line style="stroke:#181818;stroke-width:1.0;" x1="761" x2="1088" y1="266.7188" y2="266.7188"/><text fill="#000000" font-family="sans-serif" font-size="13" lengthAdjust="spacing" textLength="309" x="768" y="261.8623">Event(kind=yt_chunk, symbols, stance?, provenance)</text><polygon fill="#181818" points="1264,293.0703,1274,297.0703,1264,301.0703,1268,297.0703" style="stroke:#181818;stroke-width:1.0;"/><line style="stroke:#181818;stroke-width:1.0;stroke-dasharray:2.0,2.0;" x1="1094" x2="1270" y1="297.0703" y2="297.0703"/><text fill="#000000" font-family="sans-serif" font-size="13" lengthAdjust="spacing" textLength="158" x="1101" y="292.2139">consume Events (ideas+yt)</text><polygon fill="#181818" points="548,323.4219,538,327.4219,548,331.4219,544,327.4219" style="stroke:#181818;stroke-width:1.0;"/><line style="stroke:#181818;stroke-width:1.0;" x1="542" x2="1275" y1="327.4219" y2="327.4219"/><text fill="#000000" font-family="sans-serif" font-size="13" lengthAdjust="spacing" textLength="106" x="554" y="322.5654">RAG retrieve top-k</text><polygon fill="#181818" points="1646,353.7734,1656,357.7734,1646,361.7734,1650,357.7734" style="stroke:#181818;stroke-width:1.0;"/><line style="stroke:#181818;stroke-width:1.0;" x1="1276" x2="1652" y1="357.7734" y2="357.7734"/><text fill="#000000" font-family="sans-serif" font-size="13" lengthAdjust="spacing" textLength="358" x="1283" y="352.917">Signal(kind=narrative_push|fade, confidence, event_ids, notes)</text><!--SRC=[XP9FQy904CNl-oa6JqgDteMsY8W8HJ3fdwECoHWNaqswCwkczCDt4gN5G_6ooURzthoPtM0gbOTPyDW-aM5cQlHYKrkZ4-XPbnDBbAFG2PjUIomNjqWZKLQCJtlBDVcE-30P2cwH2Nhhp2lLVLxV-Zpc4OUoH6-_hiROV0OAwZfFw4XEUEGgNtRIV7NhPfLjgKk4ELq3akcVdstkiE3HBtSX4cDc43tf43013jlI2ho-mp8ZXBVufSy3ev82iUexadGFGcSPWYuUKm7ju42UnuKsMB29MtQjRAYPl42w3-x0q7TO4jUOqgFLqbgr0-Sh9UVjPFs3TLcd3O6RSbiLh2-2BgNd8TI-KgZT38pvk1lHL472blu9QMJJMUu6gJ5IVp9LVrevlHkwrD6mReg7HWP6vMi_yNG1diHRFGgGgeuELp59L4sw2xYquD3h3sQFjAa3xxztcD6mZTXfMStMqsrZDZRJtbmbn8CV]--></g></svg>