<?xml version="1.0" encoding="us-ascii" standalone="no"?><svg xmlns="http://www.w3.org/2000/svg" xmlns:xlink="http://www.w3.org/1999/xlink" contentStyleType="text/css" height="289px" preserveAspectRatio="none" style="width:717px;height:289px;background:#FFFFFF;" version="1.1" viewBox="0 0 717 289" width="717px" zoomAndPan="magnify"><defs/><g><line style="stroke:#181818;stroke-width:0.5;stroke-dasharray:5.0,5.0;" x1="56" x2="56" y1="68.6094" y2="210.0156"/><line style="stroke:#181818;stroke-width:0.5;stroke-dasharray:5.0,5.0;" x1="256.5" x2="256.5" y1="68.6094" y2="210.0156"/><line style="stroke:#181818;stroke-width:0.5;stroke-dasharray:5.0,5.0;" x1="433" x2="433" y1="68.6094" y2="210.0156"/><line style="stroke:#181818;stroke-width:0.5;stroke-dasharray:5.0,5.0;" x1="682.5" x2="682.5" y1="68.6094" y2="210.0156"/><rect fill="#E2E2F0" height="31.6094" rx="2.5" ry="2.5" style="stroke:#181818;stroke-width:0.5;" width="103" x="5" y="36"/><text fill="#000000" font-family="sans-serif" font-size="14" lengthAdjust="spacing" textLength="89" x="12" y="57.5332">calibration-job</text><rect fill="#E2E2F0" height="31.6094" rx="2.5" ry="2.5" style="stroke:#181818;stroke-width:0.5;" width="103" x="5" y="209.0156"/><text fill="#000000" font-family="sans-serif" font-size="14" lengthAdjust="spacing" textLength="89" x="12" y="230.5488">calibration-job</text><text fill="#000000" font-family="sans-serif" font-size="14" lengthAdjust="spacing" textLength="56" x="225.5" y="65.5332">Postgres</text><path d="M238.5,15 C238.5,5 256.5,5 256.5,5 C256.5,5 274.5,5 274.5,15 L274.5,41 C274.5,51 256.5,51 256.5,51 C256.5,51 238.5,51 238.5,41 L238.5,15 " fill="#E2E2F0" style="stroke:#181818;stroke-width:1.5;"/><path d="M238.5,15 C238.5,25 256.5,25 256.5,25 C256.5,25 274.5,25 274.5,15 " fill="none" style="stroke:#181818;stroke-width:1.5;"/><text fill="#000000" font-family="sans-serif" font-size="14" lengthAdjust="spacing" textLength="56" x="225.5" y="223.5488">Postgres</text><path d="M238.5,236.625 C238.5,226.625 256.5,226.625 256.5,226.625 C256.5,226.625 274.5,226.625 274.5,236.625 L274.5,262.625 C274.5,272.625 256.5,272.625 256.5,272.625 C256.5,272.625 238.5,272.625 238.5,262.625 L238.5,236.625 " fill="#E2E2F0" style="stroke:#181818;stroke-width:1.5;"/><path d="M238.5,236.625 C238.5,246.625 256.5,246.625 256.5,246.625 C256.5,246.625 274.5,246.625 274.5,236.625 " fill="none" style="stroke:#181818;stroke-width:1.5;"/><rect fill="#E2E2F0" height="31.6094" rx="2.5" ry="2.5" style="stroke:#181818;stroke-width:0.5;" width="73" x="397" y="36"/><text fill="#000000" font-family="sans-serif" font-size="14" lengthAdjust="spacing" textLength="59" x="404" y="57.5332">calibrator</text><rect fill="#E2E2F0" height="31.6094" rx="2.5" ry="2.5" style="stroke:#181818;stroke-width:0.5;" width="73" x="397" y="209.0156"/><text fill="#000000" font-family="sans-serif" font-size="14" lengthAdjust="spacing" textLength="59" x="404" y="230.5488">calibrator</text><text fill="#000000" font-family="sans-serif" font-size="14" lengthAdjust="spacing" textLength="38" x="660.5" y="65.5332">config</text><path d="M664.5,15 C664.5,5 682.5,5 682.5,5 C682.5,5 700.5,5 700.5,15 L700.5,41 C700.5,51 682.5,51 682.5,51 C682.5,51 664.5,51 664.5,41 L664.5,15 " fill="#E2E2F0" style="stroke:#181818;stroke-width:1.5;"/><path d="M664.5,15 C664.5,25 682.5,25 682.5,25 C682.5,25 700.5,25 700.5,15 " fill="none" style="stroke:#181818;stroke-width:1.5;"/><text fill="#000000" font-family="sans-serif" font-size="14" lengthAdjust="spacing" textLength="38" x="660.5" y="223.5488">config</text><path d="M664.5,236.625 C664.5,226.625 682.5,226.625 682.5,226.625 C682.5,226.625 700.5,226.625 700.5,236.625 L700.5,262.625 C700.5,272.625 682.5,272.625 682.5,272.625 C682.5,272.625 664.5,272.625 664.5,262.625 L664.5,236.625 " fill="#E2E2F0" style="stroke:#181818;stroke-width:1.5;"/><path d="M664.5,236.625 C664.5,246.625 682.5,246.625 682.5,246.625 C682.5,246.625 700.5,246.625 700.5,236.625 " fill="none" style="stroke:#181818;stroke-width:1.5;"/><polygon fill="#181818" points="244.5,96.9609,254.5,100.9609,244.5,104.9609,248.5,100.9609" style="stroke:#181818;stroke-width:1.0;"/><line style="stroke:#181818;stroke-width:1.0;" x1="56.5" x2="250.5" y1="100.9609" y2="100.9609"/><text fill="#000000" font-family="sans-serif" font-size="13" lengthAdjust="spacing" textLength="176" x="63.5" y="96.1045">fetch signals vs outcomes (7d)</text><polygon fill="#181818" points="421.5,127.3125,431.5,131.3125,421.5,135.3125,425.5,131.3125" style="stroke:#181818;stroke-width:1.0;"/><line style="stroke:#181818;stroke-width:1.0;stroke-dasharray:2.0,2.0;" x1="256.5" x2="427.5" y1="131.3125" y2="131.3125"/><text fill="#000000" font-family="sans-serif" font-size="13" lengthAdjust="spacing" textLength="153" x="263.5" y="126.4561">dataset by agent &amp; regime</text><polygon fill="#181818" points="670.5,157.6641,680.5,161.6641,670.5,165.6641,674.5,161.6641" style="stroke:#181818;stroke-width:1.0;"/><line style="stroke:#181818;stroke-width:1.0;" x1="433.5" x2="676.5" y1="161.6641" y2="161.6641"/><text fill="#000000" font-family="sans-serif" font-size="13" lengthAdjust="spacing" textLength="225" x="440.5" y="156.8076">write calibration params (isotonic/Platt)</text><polygon fill="#181818" points="267.5,188.0156,257.5,192.0156,267.5,196.0156,263.5,192.0156" style="stroke:#181818;stroke-width:1.0;"/><line style="stroke:#181818;stroke-width:1.0;" x1="261.5" x2="432.5" y1="192.0156" y2="192.0156"/><text fill="#000000" font-family="sans-serif" font-size="13" lengthAdjust="spacing" textLength="152" x="273.5" y="187.1592">log reliability / brier scores</text><!--SRC=[RO_1QWCn34Jl_efX3wKvB3aMUYYqAGc47l8BikEuAbvhiPIM_7sr2OKSUfutJwEPkd7YcPfXI5GvTZAMDdv9742ApJuSoIYIPWm7KIizwpLvVmlpVstfj-BhnrqpIJjnkGNRNGYRFSONL-0Pfspf4ygbKLLyA-HiIQQiU7mwhe8pewEkStOHQZR42wXal_g0dWjFEIpvWcrtZlrqjeoxT-1BQN8ZgvWqJkj39RFLN-qwf4fnMsMANDakM2DspXsQn7_-1G00]--></g></svg>