<?xml version="1.0" encoding="us-ascii" standalone="no"?><svg xmlns="http://www.w3.org/2000/svg" xmlns:xlink="http://www.w3.org/1999/xlink" contentStyleType="text/css" height="579px" preserveAspectRatio="none" style="width:1841px;height:579px;background:#FFFFFF;" version="1.1" viewBox="0 0 1841 579" width="1841px" zoomAndPan="magnify"><defs/><g><line style="stroke:#181818;stroke-width:0.5;stroke-dasharray:5.0,5.0;" x1="47" x2="47" y1="82.6094" y2="497.1797"/><line style="stroke:#181818;stroke-width:0.5;stroke-dasharray:5.0,5.0;" x1="277.5" x2="277.5" y1="82.6094" y2="497.1797"/><line style="stroke:#181818;stroke-width:0.5;stroke-dasharray:5.0,5.0;" x1="397.5" x2="397.5" y1="82.6094" y2="497.1797"/><line style="stroke:#181818;stroke-width:0.5;stroke-dasharray:5.0,5.0;" x1="511.5" x2="511.5" y1="82.6094" y2="497.1797"/><line style="stroke:#181818;stroke-width:0.5;stroke-dasharray:5.0,5.0;" x1="731" x2="731" y1="82.6094" y2="497.1797"/><line style="stroke:#181818;stroke-width:0.5;stroke-dasharray:5.0,5.0;" x1="844" x2="844" y1="82.6094" y2="497.1797"/><line style="stroke:#181818;stroke-width:0.5;stroke-dasharray:5.0,5.0;" x1="963.5" x2="963.5" y1="82.6094" y2="497.1797"/><line style="stroke:#181818;stroke-width:0.5;stroke-dasharray:5.0,5.0;" x1="1261.5" x2="1261.5" y1="82.6094" y2="497.1797"/><line style="stroke:#181818;stroke-width:0.5;stroke-dasharray:5.0,5.0;" x1="1386" x2="1386" y1="82.6094" y2="497.1797"/><line style="stroke:#181818;stroke-width:0.5;stroke-dasharray:5.0,5.0;" x1="1702" x2="1702" y1="82.6094" y2="497.1797"/><line style="stroke:#181818;stroke-width:0.5;stroke-dasharray:5.0,5.0;" x1="1788" x2="1788" y1="82.6094" y2="497.1797"/><text fill="#000000" font-family="sans-serif" font-size="14" lengthAdjust="spacing" textLength="78" x="5" y="79.5332">TradingView</text><ellipse cx="47" cy="13.5" fill="#E2E2F0" rx="8" ry="8" style="stroke:#181818;stroke-width:0.5;"/><path d="M47,21.5 L47,48.5 M34,29.5 L60,29.5 M47,48.5 L34,63.5 M47,48.5 L60,63.5 " fill="none" style="stroke:#181818;stroke-width:0.5;"/><text fill="#000000" font-family="sans-serif" font-size="14" lengthAdjust="spacing" textLength="78" x="5" y="510.7129">TradingView</text><ellipse cx="47" cy="522.2891" fill="#E2E2F0" rx="8" ry="8" style="stroke:#181818;stroke-width:0.5;"/><path d="M47,530.2891 L47,557.2891 M34,538.2891 L60,538.2891 M47,557.2891 L34,572.2891 M47,557.2891 L60,572.2891 " fill="none" style="stroke:#181818;stroke-width:0.5;"/><rect fill="#E2E2F0" height="31.6094" rx="2.5" ry="2.5" style="stroke:#181818;stroke-width:0.5;" width="109" x="223.5" y="50"/><text fill="#000000" font-family="sans-serif" font-size="14" lengthAdjust="spacing" textLength="95" x="230.5" y="71.5332">ingest-gateway</text><rect fill="#E2E2F0" height="31.6094" rx="2.5" ry="2.5" style="stroke:#181818;stroke-width:0.5;" width="109" x="223.5" y="496.1797"/><text fill="#000000" font-family="sans-serif" font-size="14" lengthAdjust="spacing" textLength="95" x="230.5" y="517.7129">ingest-gateway</text><rect fill="#E2E2F0" height="31.6094" rx="2.5" ry="2.5" style="stroke:#181818;stroke-width:0.5;" width="110" x="342.5" y="50"/><text fill="#000000" font-family="sans-serif" font-size="14" lengthAdjust="spacing" textLength="96" x="349.5" y="71.5332">nlp-summarizer</text><rect fill="#E2E2F0" height="31.6094" rx="2.5" ry="2.5" style="stroke:#181818;stroke-width:0.5;" width="110" x="342.5" y="496.1797"/><text fill="#000000" font-family="sans-serif" font-size="14" lengthAdjust="spacing" textLength="96" x="349.5" y="517.7129">nlp-summarizer</text><rect fill="#E2E2F0" height="31.6094" rx="2.5" ry="2.5" style="stroke:#181818;stroke-width:0.5;" width="99" x="462.5" y="50"/><text fill="#000000" font-family="sans-serif" font-size="14" lengthAdjust="spacing" textLength="85" x="469.5" y="71.5332">metrics-poller</text><rect fill="#E2E2F0" height="31.6094" rx="2.5" ry="2.5" style="stroke:#181818;stroke-width:0.5;" width="99" x="462.5" y="496.1797"/><text fill="#000000" font-family="sans-serif" font-size="14" lengthAdjust="spacing" textLength="85" x="469.5" y="517.7129">metrics-poller</text><path d="M687,55 L775,55 C780,55 780,68.8047 780,68.8047 C780,68.8047 780,82.6094 775,82.6094 L687,82.6094 C682,82.6094 682,68.8047 682,68.8047 C682,68.8047 682,55 687,55 " fill="#E2E2F0" style="stroke:#181818;stroke-width:0.5;"/><path d="M775,55 C770,55 770,68.8047 770,68.8047 C770,82.6094 775,82.6094 775,82.6094 " fill="none" style="stroke:#181818;stroke-width:0.5;"/><text fill="#000000" font-family="sans-serif" font-size="14" lengthAdjust="spacing" textLength="78" x="687" y="74.5332">x:events.raw</text><path d="M687,496.1797 L775,496.1797 C780,496.1797 780,509.9844 780,509.9844 C780,509.9844 780,523.7891 775,523.7891 L687,523.7891 C682,523.7891 682,509.9844 682,509.9844 C682,509.9844 682,496.1797 687,496.1797 " fill="#E2E2F0" style="stroke:#181818;stroke-width:0.5;"/><path d="M775,496.1797 C770,496.1797 770,509.9844 770,509.9844 C770,523.7891 775,523.7891 775,523.7891 " fill="none" style="stroke:#181818;stroke-width:0.5;"/><text fill="#000000" font-family="sans-serif" font-size="14" lengthAdjust="spacing" textLength="78" x="687" y="515.7129">x:events.raw</text><path d="M795,55 L893,55 C898,55 898,68.8047 898,68.8047 C898,68.8047 898,82.6094 893,82.6094 L795,82.6094 C790,82.6094 790,68.8047 790,68.8047 C790,68.8047 790,55 795,55 " fill="#E2E2F0" style="stroke:#181818;stroke-width:0.5;"/><path d="M893,55 C888,55 888,68.8047 888,68.8047 C888,82.6094 893,82.6094 893,82.6094 " fill="none" style="stroke:#181818;stroke-width:0.5;"/><text fill="#000000" font-family="sans-serif" font-size="14" lengthAdjust="spacing" textLength="88" x="795" y="74.5332">x:events.norm</text><path d="M795,496.1797 L893,496.1797 C898,496.1797 898,509.9844 898,509.9844 C898,509.9844 898,523.7891 893,523.7891 L795,523.7891 C790,523.7891 790,509.9844 790,509.9844 C790,509.9844 790,496.1797 795,496.1797 " fill="#E2E2F0" style="stroke:#181818;stroke-width:0.5;"/><path d="M893,496.1797 C888,496.1797 888,509.9844 888,509.9844 C888,523.7891 893,523.7891 893,523.7891 " fill="none" style="stroke:#181818;stroke-width:0.5;"/><text fill="#000000" font-family="sans-serif" font-size="14" lengthAdjust="spacing" textLength="88" x="795" y="515.7129">x:events.norm</text><rect fill="#E2E2F0" height="31.6094" rx="2.5" ry="2.5" style="stroke:#181818;stroke-width:0.5;" width="97" x="915.5" y="50"/><text fill="#000000" font-family="sans-serif" font-size="14" lengthAdjust="spacing" textLength="83" x="922.5" y="71.5332">agent-runner</text><rect fill="#E2E2F0" height="31.6094" rx="2.5" ry="2.5" style="stroke:#181818;stroke-width:0.5;" width="97" x="915.5" y="496.1797"/><text fill="#000000" font-family="sans-serif" font-size="14" lengthAdjust="spacing" textLength="83" x="922.5" y="517.7129">agent-runner</text><path d="M1225.5,55 L1298.5,55 C1303.5,55 1303.5,68.8047 1303.5,68.8047 C1303.5,68.8047 1303.5,82.6094 1298.5,82.6094 L1225.5,82.6094 C1220.5,82.6094 1220.5,68.8047 1220.5,68.8047 C1220.5,68.8047 1220.5,55 1225.5,55 " fill="#E2E2F0" style="stroke:#181818;stroke-width:0.5;"/><path d="M1298.5,55 C1293.5,55 1293.5,68.8047 1293.5,68.8047 C1293.5,82.6094 1298.5,82.6094 1298.5,82.6094 " fill="none" style="stroke:#181818;stroke-width:0.5;"/><text fill="#000000" font-family="sans-serif" font-size="14" lengthAdjust="spacing" textLength="63" x="1225.5" y="74.5332">x:signals.*</text><path d="M1225.5,496.1797 L1298.5,496.1797 C1303.5,496.1797 1303.5,509.9844 1303.5,509.9844 C1303.5,509.9844 1303.5,523.7891 1298.5,523.7891 L1225.5,523.7891 C1220.5,523.7891 1220.5,509.9844 1220.5,509.9844 C1220.5,509.9844 1220.5,496.1797 1225.5,496.1797 " fill="#E2E2F0" style="stroke:#181818;stroke-width:0.5;"/><path d="M1298.5,496.1797 C1293.5,496.1797 1293.5,509.9844 1293.5,509.9844 C1293.5,523.7891 1298.5,523.7891 1298.5,523.7891 " fill="none" style="stroke:#181818;stroke-width:0.5;"/><text fill="#000000" font-family="sans-serif" font-size="14" lengthAdjust="spacing" textLength="63" x="1225.5" y="515.7129">x:signals.*</text><rect fill="#E2E2F0" height="31.6094" rx="2.5" ry="2.5" style="stroke:#181818;stroke-width:0.5;" width="100" x="1336" y="50"/><text fill="#000000" font-family="sans-serif" font-size="14" lengthAdjust="spacing" textLength="86" x="1343" y="71.5332">fusion-engine</text><rect fill="#E2E2F0" height="31.6094" rx="2.5" ry="2.5" style="stroke:#181818;stroke-width:0.5;" width="100" x="1336" y="496.1797"/><text fill="#000000" font-family="sans-serif" font-size="14" lengthAdjust="spacing" textLength="86" x="1343" y="517.7129">fusion-engine</text><text fill="#000000" font-family="sans-serif" font-size="14" lengthAdjust="spacing" textLength="56" x="1671" y="79.5332">Postgres</text><path d="M1684,29 C1684,19 1702,19 1702,19 C1702,19 1720,19 1720,29 L1720,55 C1720,65 1702,65 1702,65 C1702,65 1684,65 1684,55 L1684,29 " fill="#E2E2F0" style="stroke:#181818;stroke-width:1.5;"/><path d="M1684,29 C1684,39 1702,39 1702,39 C1702,39 1720,39 1720,29 " fill="none" style="stroke:#181818;stroke-width:1.5;"/><text fill="#000000" font-family="sans-serif" font-size="14" lengthAdjust="spacing" textLength="56" x="1671" y="510.7129">Postgres</text><path d="M1684,523.7891 C1684,513.7891 1702,513.7891 1702,513.7891 C1702,513.7891 1720,513.7891 1720,523.7891 L1720,549.7891 C1720,559.7891 1702,559.7891 1702,559.7891 C1702,559.7891 1684,559.7891 1684,549.7891 L1684,523.7891 " fill="#E2E2F0" style="stroke:#181818;stroke-width:1.5;"/><path d="M1684,523.7891 C1684,533.7891 1702,533.7891 1702,533.7891 C1702,533.7891 1720,533.7891 1720,523.7891 " fill="none" style="stroke:#181818;stroke-width:1.5;"/><path d="M1748,55 L1829,55 C1834,55 1834,68.8047 1834,68.8047 C1834,68.8047 1834,82.6094 1829,82.6094 L1748,82.6094 C1743,82.6094 1743,68.8047 1743,68.8047 C1743,68.8047 1743,55 1748,55 " fill="#E2E2F0" style="stroke:#181818;stroke-width:0.5;"/><path d="M1829,55 C1824,55 1824,68.8047 1824,68.8047 C1824,82.6094 1829,82.6094 1829,82.6094 " fill="none" style="stroke:#181818;stroke-width:0.5;"/><text fill="#000000" font-family="sans-serif" font-size="14" lengthAdjust="spacing" textLength="71" x="1748" y="74.5332">x:bias.state</text><path d="M1748,496.1797 L1829,496.1797 C1834,496.1797 1834,509.9844 1834,509.9844 C1834,509.9844 1834,523.7891 1829,523.7891 L1748,523.7891 C1743,523.7891 1743,509.9844 1743,509.9844 C1743,509.9844 1743,496.1797 1748,496.1797 " fill="#E2E2F0" style="stroke:#181818;stroke-width:0.5;"/><path d="M1829,496.1797 C1824,496.1797 1824,509.9844 1824,509.9844 C1824,523.7891 1829,523.7891 1829,523.7891 " fill="none" style="stroke:#181818;stroke-width:0.5;"/><text fill="#000000" font-family="sans-serif" font-size="14" lengthAdjust="spacing" textLength="71" x="1748" y="515.7129">x:bias.state</text><polygon fill="#181818" points="266,110.9609,276,114.9609,266,118.9609,270,114.9609" style="stroke:#181818;stroke-width:1.0;"/><line style="stroke:#181818;stroke-width:1.0;" x1="47" x2="272" y1="114.9609" y2="114.9609"/><text fill="#000000" font-family="sans-serif" font-size="13" lengthAdjust="spacing" textLength="207" x="54" y="110.1045">POST /ingest/tv (Unikill V1 payload)</text><polygon fill="#181818" points="719,141.3125,729,145.3125,719,149.3125,723,145.3125" style="stroke:#181818;stroke-width:1.0;"/><line style="stroke:#181818;stroke-width:1.0;" x1="278" x2="725" y1="145.3125" y2="145.3125"/><text fill="#000000" font-family="sans-serif" font-size="13" lengthAdjust="spacing" textLength="81" x="285" y="140.4561">push raw alert</text><polygon fill="#181818" points="719,171.6641,729,175.6641,719,179.6641,723,175.6641" style="stroke:#181818;stroke-width:1.0;"/><line style="stroke:#181818;stroke-width:1.0;" x1="512" x2="725" y1="175.6641" y2="175.6641"/><text fill="#000000" font-family="sans-serif" font-size="13" lengthAdjust="spacing" textLength="195" x="519" y="170.8076">push metric threshold (funding/OI)</text><polygon fill="#181818" points="719,202.0156,729,206.0156,719,210.0156,723,206.0156" style="stroke:#181818;stroke-width:1.0;"/><line style="stroke:#181818;stroke-width:1.0;" x1="397.5" x2="725" y1="206.0156" y2="206.0156"/><text fill="#000000" font-family="sans-serif" font-size="13" lengthAdjust="spacing" textLength="192" x="404.5" y="201.1592">push summarized YT/Idea events</text><polygon fill="#181818" points="408.5,232.3672,398.5,236.3672,408.5,240.3672,404.5,236.3672" style="stroke:#181818;stroke-width:1.0;"/><line style="stroke:#181818;stroke-width:1.0;stroke-dasharray:2.0,2.0;" x1="402.5" x2="730" y1="236.3672" y2="236.3672"/><text fill="#000000" font-family="sans-serif" font-size="13" lengthAdjust="spacing" textLength="139" x="414.5" y="231.5107">consume raw text items</text><polygon fill="#181818" points="832,262.7188,842,266.7188,832,270.7188,836,266.7188" style="stroke:#181818;stroke-width:1.0;"/><line style="stroke:#181818;stroke-width:1.0;" x1="397.5" x2="838" y1="266.7188" y2="266.7188"/><text fill="#000000" font-family="sans-serif" font-size="13" lengthAdjust="spacing" textLength="131" x="404.5" y="261.8623">push normalized Event</text><polygon fill="#181818" points="289,293.0703,279,297.0703,289,301.0703,285,297.0703" style="stroke:#181818;stroke-width:1.0;"/><line style="stroke:#181818;stroke-width:1.0;stroke-dasharray:2.0,2.0;" x1="283" x2="730" y1="297.0703" y2="297.0703"/><text fill="#000000" font-family="sans-serif" font-size="13" lengthAdjust="spacing" textLength="161" x="295" y="292.2139">(tv alerts already structured)</text><polygon fill="#181818" points="832,323.4219,842,327.4219,832,331.4219,836,327.4219" style="stroke:#181818;stroke-width:1.0;"/><line style="stroke:#181818;stroke-width:1.0;" x1="278" x2="838" y1="327.4219" y2="327.4219"/><text fill="#000000" font-family="sans-serif" font-size="13" lengthAdjust="spacing" textLength="131" x="285" y="322.5654">push normalized Event</text><polygon fill="#181818" points="952,353.7734,962,357.7734,952,361.7734,956,357.7734" style="stroke:#181818;stroke-width:1.0;"/><line style="stroke:#181818;stroke-width:1.0;stroke-dasharray:2.0,2.0;" x1="844" x2="958" y1="357.7734" y2="357.7734"/><text fill="#000000" font-family="sans-serif" font-size="13" lengthAdjust="spacing" textLength="96" x="851" y="352.917">consume Events</text><polygon fill="#181818" points="1250,384.125,1260,388.125,1250,392.125,1254,388.125" style="stroke:#181818;stroke-width:1.0;"/><line style="stroke:#181818;stroke-width:1.0;" x1="964" x2="1256" y1="388.125" y2="388.125"/><text fill="#000000" font-family="sans-serif" font-size="13" lengthAdjust="spacing" textLength="274" x="971" y="383.2686">emit Signals (tech, funding, sentiment, rotation)</text><polygon fill="#181818" points="1374,414.4766,1384,418.4766,1374,422.4766,1378,418.4766" style="stroke:#181818;stroke-width:1.0;"/><line style="stroke:#181818;stroke-width:1.0;stroke-dasharray:2.0,2.0;" x1="1262" x2="1380" y1="418.4766" y2="418.4766"/><text fill="#000000" font-family="sans-serif" font-size="13" lengthAdjust="spacing" textLength="100" x="1269" y="413.6201">consume Signals</text><polygon fill="#181818" points="1690,444.8281,1700,448.8281,1690,452.8281,1694,448.8281" style="stroke:#181818;stroke-width:1.0;"/><line style="stroke:#181818;stroke-width:1.0;" x1="1386" x2="1696" y1="448.8281" y2="448.8281"/><text fill="#000000" font-family="sans-serif" font-size="13" lengthAdjust="spacing" textLength="292" x="1393" y="443.9717">upsert Bias components &amp; Opportunity candidates</text><polygon fill="#181818" points="1776.5,475.1797,1786.5,479.1797,1776.5,483.1797,1780.5,479.1797" style="stroke:#181818;stroke-width:1.0;"/><line style="stroke:#181818;stroke-width:1.0;" x1="1386" x2="1782.5" y1="479.1797" y2="479.1797"/><text fill="#000000" font-family="sans-serif" font-size="13" lengthAdjust="spacing" textLength="128" x="1393" y="474.3232">publish Bias snapshot</text><!--SRC=[VP91Rzf048Nl-oj672AeCAXN3fLYnOcGMa2OHkfni2TcLNjtkpiRGdzznsj2e9LwmTA-RzxCl04hjXvs7cjjccTDH-NGiwwqGyCmaaSAd3N8TCJJ2330ykaMCQtBGkmwzFet-OIilcvkcOxOwofaphRjcVbMxDIlI95WzBQWLp8SPXwFIIks_qZ6-cxGLhVMs8YU-MZCsVZ-gZZenc0RPf-IKluz-aiCsfgCJACD9UInK3KoxZ58_SO6RZo5f3pa7xPxZM4MM499KbugTPKWP5ya95Z0PbtkO3v4EETN67yt-gTkMtZ-30vFhSLweeGKljWAxs8uW6G0A26nKXBHhJR427oGeGwshM7y4atVThvUJfIaVejVhbB3ZzryMHF2aAPI0cN2zYKBgAmHb59hfZS6pTI5Yz_gtQ-_0RR9h-XzBZPfsx5ic0OFyl64zGa2-rXnzFInv__CLidiVdirKZ7CAs-YbAaFTPgX70uhJQawJE4SmnI2uBgJdobuAmUIyqvKNzSxFnPNpcS79OyYFUGYHHTaVCZbke9rpfg-ETp1sZdhEHhD9wXGMib_XDvBypAjj6-rR9LgWq4dz-4_]--></g></svg>