<?xml version="1.0" encoding="us-ascii" standalone="no"?><svg xmlns="http://www.w3.org/2000/svg" xmlns:xlink="http://www.w3.org/1999/xlink" contentStyleType="text/css" height="680px" preserveAspectRatio="none" style="width:1577px;height:680px;background:#FFFFFF;" version="1.1" viewBox="0 0 1577 680" width="1577px" zoomAndPan="magnify"><defs/><g><text fill="#000000" font-family="sans-serif" font-size="14" font-weight="bold" lengthAdjust="spacing" textLength="323" x="628" y="29.5332">Event Lifecycle - From Ingest to Opportunities</text><rect fill="#FFFFFF" height="162.5938" style="stroke:#181818;stroke-width:1.0;" width="10" x="199.5" y="153.5703"/><rect fill="none" height="139.2422" style="stroke:#000000;stroke-width:1.5;" width="1560" x="10" y="198.9219"/><line style="stroke:#181818;stroke-width:0.5;stroke-dasharray:5.0,5.0;" x1="45" x2="45" y1="121.2188" y2="597.9766"/><line style="stroke:#181818;stroke-width:0.5;stroke-dasharray:5.0,5.0;" x1="204" x2="204" y1="121.2188" y2="597.9766"/><line style="stroke:#181818;stroke-width:0.5;stroke-dasharray:5.0,5.0;" x1="318" x2="318" y1="121.2188" y2="597.9766"/><line style="stroke:#181818;stroke-width:0.5;stroke-dasharray:5.0,5.0;" x1="432.5" x2="432.5" y1="121.2188" y2="597.9766"/><line style="stroke:#181818;stroke-width:0.5;stroke-dasharray:5.0,5.0;" x1="607" x2="607" y1="121.2188" y2="597.9766"/><line style="stroke:#181818;stroke-width:0.5;stroke-dasharray:5.0,5.0;" x1="844.5" x2="844.5" y1="121.2188" y2="597.9766"/><line style="stroke:#181818;stroke-width:0.5;stroke-dasharray:5.0,5.0;" x1="1093.5" x2="1093.5" y1="121.2188" y2="597.9766"/><line style="stroke:#181818;stroke-width:0.5;stroke-dasharray:5.0,5.0;" x1="1249" x2="1249" y1="121.2188" y2="597.9766"/><line style="stroke:#181818;stroke-width:0.5;stroke-dasharray:5.0,5.0;" x1="1529" x2="1529" y1="121.2188" y2="597.9766"/><text fill="#000000" font-family="sans-serif" font-size="14" lengthAdjust="spacing" textLength="45" x="20" y="118.1426">Source</text><ellipse cx="45.5" cy="52.1094" fill="#E2E2F0" rx="8" ry="8" style="stroke:#181818;stroke-width:0.5;"/><path d="M45.5,60.1094 L45.5,87.1094 M32.5,68.1094 L58.5,68.1094 M45.5,87.1094 L32.5,102.1094 M45.5,87.1094 L58.5,102.1094 " fill="none" style="stroke:#181818;stroke-width:0.5;"/><text fill="#000000" font-family="sans-serif" font-size="14" lengthAdjust="spacing" textLength="45" x="20" y="611.5098">Source</text><ellipse cx="45.5" cy="623.0859" fill="#E2E2F0" rx="8" ry="8" style="stroke:#181818;stroke-width:0.5;"/><path d="M45.5,631.0859 L45.5,658.0859 M32.5,639.0859 L58.5,639.0859 M45.5,658.0859 L32.5,673.0859 M45.5,658.0859 L58.5,673.0859 " fill="none" style="stroke:#181818;stroke-width:0.5;"/><rect fill="#E2E2F0" height="31.6094" rx="2.5" ry="2.5" style="stroke:#181818;stroke-width:0.5;" width="109" x="150" y="88.6094"/><text fill="#000000" font-family="sans-serif" font-size="14" lengthAdjust="spacing" textLength="95" x="157" y="110.1426">ingest-gateway</text><rect fill="#E2E2F0" height="31.6094" rx="2.5" ry="2.5" style="stroke:#181818;stroke-width:0.5;" width="109" x="150" y="596.9766"/><text fill="#000000" font-family="sans-serif" font-size="14" lengthAdjust="spacing" textLength="95" x="157" y="618.5098">ingest-gateway</text><path d="M274,93.6094 L362,93.6094 C367,93.6094 367,107.4141 367,107.4141 C367,107.4141 367,121.2188 362,121.2188 L274,121.2188 C269,121.2188 269,107.4141 269,107.4141 C269,107.4141 269,93.6094 274,93.6094 " fill="#E2E2F0" style="stroke:#181818;stroke-width:0.5;"/><path d="M362,93.6094 C357,93.6094 357,107.4141 357,107.4141 C357,121.2188 362,121.2188 362,121.2188 " fill="none" style="stroke:#181818;stroke-width:0.5;"/><text fill="#000000" font-family="sans-serif" font-size="14" lengthAdjust="spacing" textLength="78" x="274" y="113.1426">x:events.raw</text><path d="M274,596.9766 L362,596.9766 C367,596.9766 367,610.7813 367,610.7813 C367,610.7813 367,624.5859 362,624.5859 L274,624.5859 C269,624.5859 269,610.7813 269,610.7813 C269,610.7813 269,596.9766 274,596.9766 " fill="#E2E2F0" style="stroke:#181818;stroke-width:0.5;"/><path d="M362,596.9766 C357,596.9766 357,610.7813 357,610.7813 C357,624.5859 362,624.5859 362,624.5859 " fill="none" style="stroke:#181818;stroke-width:0.5;"/><text fill="#000000" font-family="sans-serif" font-size="14" lengthAdjust="spacing" textLength="78" x="274" y="616.5098">x:events.raw</text><rect fill="#E2E2F0" height="31.6094" rx="2.5" ry="2.5" style="stroke:#181818;stroke-width:0.5;" width="79" x="393.5" y="88.6094"/><text fill="#000000" font-family="sans-serif" font-size="14" lengthAdjust="spacing" textLength="65" x="400.5" y="110.1426">normalizer</text><rect fill="#E2E2F0" height="31.6094" rx="2.5" ry="2.5" style="stroke:#181818;stroke-width:0.5;" width="79" x="393.5" y="596.9766"/><text fill="#000000" font-family="sans-serif" font-size="14" lengthAdjust="spacing" textLength="65" x="400.5" y="618.5098">normalizer</text><path d="M558,93.6094 L656,93.6094 C661,93.6094 661,107.4141 661,107.4141 C661,107.4141 661,121.2188 656,121.2188 L558,121.2188 C553,121.2188 553,107.4141 553,107.4141 C553,107.4141 553,93.6094 558,93.6094 " fill="#E2E2F0" style="stroke:#181818;stroke-width:0.5;"/><path d="M656,93.6094 C651,93.6094 651,107.4141 651,107.4141 C651,121.2188 656,121.2188 656,121.2188 " fill="none" style="stroke:#181818;stroke-width:0.5;"/><text fill="#000000" font-family="sans-serif" font-size="14" lengthAdjust="spacing" textLength="88" x="558" y="113.1426">x:events.norm</text><path d="M558,596.9766 L656,596.9766 C661,596.9766 661,610.7813 661,610.7813 C661,610.7813 661,624.5859 656,624.5859 L558,624.5859 C553,624.5859 553,610.7813 553,610.7813 C553,610.7813 553,596.9766 558,596.9766 " fill="#E2E2F0" style="stroke:#181818;stroke-width:0.5;"/><path d="M656,596.9766 C651,596.9766 651,610.7813 651,610.7813 C651,624.5859 656,624.5859 656,624.5859 " fill="none" style="stroke:#181818;stroke-width:0.5;"/><text fill="#000000" font-family="sans-serif" font-size="14" lengthAdjust="spacing" textLength="88" x="558" y="616.5098">x:events.norm</text><rect fill="#E2E2F0" height="31.6094" rx="2.5" ry="2.5" style="stroke:#181818;stroke-width:0.5;" width="201" x="744.5" y="88.6094"/><text fill="#000000" font-family="sans-serif" font-size="14" lengthAdjust="spacing" textLength="187" x="751.5" y="110.1426">agents (tech/funding/sent/rot)</text><rect fill="#E2E2F0" height="31.6094" rx="2.5" ry="2.5" style="stroke:#181818;stroke-width:0.5;" width="201" x="744.5" y="596.9766"/><text fill="#000000" font-family="sans-serif" font-size="14" lengthAdjust="spacing" textLength="187" x="751.5" y="618.5098">agents (tech/funding/sent/rot)</text><path d="M1057.5,93.6094 L1130.5,93.6094 C1135.5,93.6094 1135.5,107.4141 1135.5,107.4141 C1135.5,107.4141 1135.5,121.2188 1130.5,121.2188 L1057.5,121.2188 C1052.5,121.2188 1052.5,107.4141 1052.5,107.4141 C1052.5,107.4141 1052.5,93.6094 1057.5,93.6094 " fill="#E2E2F0" style="stroke:#181818;stroke-width:0.5;"/><path d="M1130.5,93.6094 C1125.5,93.6094 1125.5,107.4141 1125.5,107.4141 C1125.5,121.2188 1130.5,121.2188 1130.5,121.2188 " fill="none" style="stroke:#181818;stroke-width:0.5;"/><text fill="#000000" font-family="sans-serif" font-size="14" lengthAdjust="spacing" textLength="63" x="1057.5" y="113.1426">x:signals.*</text><path d="M1057.5,596.9766 L1130.5,596.9766 C1135.5,596.9766 1135.5,610.7813 1135.5,610.7813 C1135.5,610.7813 1135.5,624.5859 1130.5,624.5859 L1057.5,624.5859 C1052.5,624.5859 1052.5,610.7813 1052.5,610.7813 C1052.5,610.7813 1052.5,596.9766 1057.5,596.9766 " fill="#E2E2F0" style="stroke:#181818;stroke-width:0.5;"/><path d="M1130.5,596.9766 C1125.5,596.9766 1125.5,610.7813 1125.5,610.7813 C1125.5,624.5859 1130.5,624.5859 1130.5,624.5859 " fill="none" style="stroke:#181818;stroke-width:0.5;"/><text fill="#000000" font-family="sans-serif" font-size="14" lengthAdjust="spacing" textLength="63" x="1057.5" y="616.5098">x:signals.*</text><rect fill="#E2E2F0" height="31.6094" rx="2.5" ry="2.5" style="stroke:#181818;stroke-width:0.5;" width="100" x="1199" y="88.6094"/><text fill="#000000" font-family="sans-serif" font-size="14" lengthAdjust="spacing" textLength="86" x="1206" y="110.1426">fusion-engine</text><rect fill="#E2E2F0" height="31.6094" rx="2.5" ry="2.5" style="stroke:#181818;stroke-width:0.5;" width="100" x="1199" y="596.9766"/><text fill="#000000" font-family="sans-serif" font-size="14" lengthAdjust="spacing" textLength="86" x="1206" y="618.5098">fusion-engine</text><text fill="#000000" font-family="sans-serif" font-size="14" lengthAdjust="spacing" textLength="56" x="1498" y="118.1426">Postgres</text><path d="M1511,67.6094 C1511,57.6094 1529,57.6094 1529,57.6094 C1529,57.6094 1547,57.6094 1547,67.6094 L1547,93.6094 C1547,103.6094 1529,103.6094 1529,103.6094 C1529,103.6094 1511,103.6094 1511,93.6094 L1511,67.6094 " fill="#E2E2F0" style="stroke:#181818;stroke-width:1.5;"/><path d="M1511,67.6094 C1511,77.6094 1529,77.6094 1529,77.6094 C1529,77.6094 1547,77.6094 1547,67.6094 " fill="none" style="stroke:#181818;stroke-width:1.5;"/><text fill="#000000" font-family="sans-serif" font-size="14" lengthAdjust="spacing" textLength="56" x="1498" y="611.5098">Postgres</text><path d="M1511,624.5859 C1511,614.5859 1529,614.5859 1529,614.5859 C1529,614.5859 1547,614.5859 1547,624.5859 L1547,650.5859 C1547,660.5859 1529,660.5859 1529,660.5859 C1529,660.5859 1511,660.5859 1511,650.5859 L1511,624.5859 " fill="#E2E2F0" style="stroke:#181818;stroke-width:1.5;"/><path d="M1511,624.5859 C1511,634.5859 1529,634.5859 1529,634.5859 C1529,634.5859 1547,634.5859 1547,624.5859 " fill="none" style="stroke:#181818;stroke-width:1.5;"/><rect fill="#FFFFFF" height="162.5938" style="stroke:#181818;stroke-width:1.0;" width="10" x="199.5" y="153.5703"/><polygon fill="#181818" points="187.5,149.5703,197.5,153.5703,187.5,157.5703,191.5,153.5703" style="stroke:#181818;stroke-width:1.0;"/><line style="stroke:#181818;stroke-width:1.0;" x1="45.5" x2="193.5" y1="153.5703" y2="153.5703"/><text fill="#000000" font-family="sans-serif" font-size="13" lengthAdjust="spacing" textLength="135" x="52.5" y="148.7139">POST /ingest (payload)</text><polygon fill="#181818" points="1517,179.9219,1527,183.9219,1517,187.9219,1521,183.9219" style="stroke:#181818;stroke-width:1.0;"/><line style="stroke:#181818;stroke-width:1.0;" x1="209.5" x2="1523" y1="183.9219" y2="183.9219"/><text fill="#000000" font-family="sans-serif" font-size="13" lengthAdjust="spacing" textLength="244" x="216.5" y="179.0654">SELECT 1 FROM events WHERE hash=?</text><path d="M10,198.9219 L71,198.9219 L71,207.2734 L61,217.2734 L10,217.2734 L10,198.9219 " fill="#EEEEEE" style="stroke:#000000;stroke-width:1.5;"/><rect fill="none" height="139.2422" style="stroke:#000000;stroke-width:1.5;" width="1560" x="10" y="198.9219"/><text fill="#000000" font-family="sans-serif" font-size="13" font-weight="bold" lengthAdjust="spacing" textLength="16" x="25" y="213.417">alt</text><text fill="#000000" font-family="sans-serif" font-size="11" font-weight="bold" lengthAdjust="spacing" textLength="65" x="86" y="212.3408">[first_seen]</text><polygon fill="#181818" points="1517,235.625,1527,239.625,1517,243.625,1521,239.625" style="stroke:#181818;stroke-width:1.0;"/><line style="stroke:#181818;stroke-width:1.0;" x1="209.5" x2="1523" y1="239.625" y2="239.625"/><text fill="#000000" font-family="sans-serif" font-size="13" lengthAdjust="spacing" textLength="147" x="216.5" y="234.7686">INSERT events{... , hash}</text><polygon fill="#181818" points="306,265.9766,316,269.9766,306,273.9766,310,269.9766" style="stroke:#181818;stroke-width:1.0;"/><line style="stroke:#181818;stroke-width:1.0;" x1="209.5" x2="312" y1="269.9766" y2="269.9766"/><text fill="#000000" font-family="sans-serif" font-size="13" lengthAdjust="spacing" textLength="80" x="216.5" y="265.1201">append(event)</text><line style="stroke:#000000;stroke-width:1.0;stroke-dasharray:2.0,2.0;" x1="10" x2="1570" y1="278.9766" y2="278.9766"/><text fill="#000000" font-family="sans-serif" font-size="11" font-weight="bold" lengthAdjust="spacing" textLength="58" x="15" y="290.3955">[duplicate]</text><polygon fill="#181818" points="56.5,312.1641,46.5,316.1641,56.5,320.1641,52.5,316.1641" style="stroke:#181818;stroke-width:1.0;"/><line style="stroke:#181818;stroke-width:1.0;stroke-dasharray:2.0,2.0;" x1="50.5" x2="203.5" y1="316.1641" y2="316.1641"/><text fill="#000000" font-family="sans-serif" font-size="13" lengthAdjust="spacing" textLength="105" x="62.5" y="311.3076">200 OK (deduped)</text><polygon fill="#181818" points="192.5,326.1641,202.5,330.1641,192.5,334.1641,196.5,330.1641" style="stroke:#181818;stroke-width:1.0;"/><line style="stroke:#181818;stroke-width:1.0;stroke-dasharray:2.0,2.0;" x1="45.5" x2="198.5" y1="330.1641" y2="330.1641"/><polygon fill="#181818" points="421,363.5156,431,367.5156,421,371.5156,425,367.5156" style="stroke:#181818;stroke-width:1.0;"/><line style="stroke:#181818;stroke-width:1.0;stroke-dasharray:2.0,2.0;" x1="318" x2="427" y1="367.5156" y2="367.5156"/><text fill="#000000" font-family="sans-serif" font-size="13" lengthAdjust="spacing" textLength="91" x="325" y="362.6592">consume(event)</text><polygon fill="#181818" points="595,393.8672,605,397.8672,595,401.8672,599,397.8672" style="stroke:#181818;stroke-width:1.0;"/><line style="stroke:#181818;stroke-width:1.0;" x1="433" x2="601" y1="397.8672" y2="397.8672"/><text fill="#000000" font-family="sans-serif" font-size="13" lengthAdjust="spacing" textLength="150" x="440" y="393.0107">append(normalized_event)</text><polygon fill="#181818" points="833,424.2188,843,428.2188,833,432.2188,837,428.2188" style="stroke:#181818;stroke-width:1.0;"/><line style="stroke:#181818;stroke-width:1.0;stroke-dasharray:2.0,2.0;" x1="607" x2="839" y1="428.2188" y2="428.2188"/><text fill="#000000" font-family="sans-serif" font-size="13" lengthAdjust="spacing" textLength="214" x="614" y="423.3623">consume(batch window by symbol,tf)</text><polygon fill="#181818" points="1517,454.5703,1527,458.5703,1517,462.5703,1521,458.5703" style="stroke:#181818;stroke-width:1.0;"/><line style="stroke:#181818;stroke-width:1.0;" x1="845" x2="1523" y1="458.5703" y2="458.5703"/><text fill="#000000" font-family="sans-serif" font-size="13" lengthAdjust="spacing" textLength="142" x="852" y="453.7139">read regimes, calibration</text><polygon fill="#181818" points="1082,484.9219,1092,488.9219,1082,492.9219,1086,488.9219" style="stroke:#181818;stroke-width:1.0;"/><line style="stroke:#181818;stroke-width:1.0;" x1="845" x2="1088" y1="488.9219" y2="488.9219"/><text fill="#000000" font-family="sans-serif" font-size="13" lengthAdjust="spacing" textLength="225" x="852" y="484.0654">emit signals (features,confidence,links)</text><polygon fill="#181818" points="1237,515.2734,1247,519.2734,1237,523.2734,1241,519.2734" style="stroke:#181818;stroke-width:1.0;"/><line style="stroke:#181818;stroke-width:1.0;stroke-dasharray:2.0,2.0;" x1="1094" x2="1243" y1="519.2734" y2="519.2734"/><text fill="#000000" font-family="sans-serif" font-size="13" lengthAdjust="spacing" textLength="131" x="1101" y="514.417">consume(signal batch)</text><polygon fill="#181818" points="1517,545.625,1527,549.625,1517,553.625,1521,549.625" style="stroke:#181818;stroke-width:1.0;"/><line style="stroke:#181818;stroke-width:1.0;" x1="1249" x2="1523" y1="549.625" y2="549.625"/><text fill="#000000" font-family="sans-serif" font-size="13" lengthAdjust="spacing" textLength="256" x="1256" y="544.7686">upsert snapshot(opportunities) + provenance</text><polygon fill="#181818" points="1105,575.9766,1095,579.9766,1105,583.9766,1101,579.9766" style="stroke:#181818;stroke-width:1.0;"/><line style="stroke:#181818;stroke-width:1.0;stroke-dasharray:2.0,2.0;" x1="1099" x2="1248" y1="579.9766" y2="579.9766"/><text fill="#000000" font-family="sans-serif" font-size="13" lengthAdjust="spacing" textLength="21" x="1111" y="575.1201">ack</text><!--SRC=[PPDFRzim3CNl-XH4J_QMFzsE1ROXNPqkM9CKSO0T2qQc7Q6sf4boispOTn-jkAc3NGpOx_V8Hn8EAjG4sGlf00-g97cK_3w6kJCDB7H5Fa0miBRMkD1g5HHv8L06uo0thPC4w24N5brGKbdaEbSg-iOL1ZhWyQeZ5lVYPqijmTMl6-gw-Od3GvIopQLR6zTWhNwJY_9g-P-p8qxMrQKLgqw7993SJyjM5vnawldRr9cGHiji4CIhIcFj9- -YadF6YsfbwvNHOzALqXIHUIOA3BX3p_v7uqFbo4VbxbQ87CQVUL2uWSTrleNfQGsGM3pM1ekqMvjwuQLqss2EwRjRflFi8VkwXGymtwoNS9eHVdpBDXdiqUy_VH5O1oYLy-794sa1C70lLdcssVQsFvF914RHzlUCPHl6q5hIHHAnL53D4nIjhPNaF3t9QCxan-jhM7-7f206Y6C353IC3k0ej4uBBYWk9S6zkZgh9HUIHlkseTUU_AqBiteBSxvqyTGph7RssVt0liCWzt1GkZ07s1t17vkTgKUXJ8MOlUt14HRyg5H3VWIIw-uS1ZvW3-NnCjIe0FtT8Ia9UH3ckLUf2jAIHhNIpvvBv_rAvjaWoya9CL8gM7hjtbfFZYjhj7vlGcA6FqmAxy4wmoCYTuYsSo2Kp_y0]--></g></svg>