<?xml version="1.0" encoding="us-ascii" standalone="no"?><svg xmlns="http://www.w3.org/2000/svg" xmlns:xlink="http://www.w3.org/1999/xlink" contentStyleType="text/css" height="366px" preserveAspectRatio="none" style="width:745px;height:366px;background:#FFFFFF;" version="1.1" viewBox="0 0 745 366" width="745px" zoomAndPan="magnify"><defs/><g><line style="stroke:#181818;stroke-width:0.5;stroke-dasharray:5.0,5.0;" x1="29" x2="29" y1="82.6094" y2="284.7188"/><line style="stroke:#181818;stroke-width:0.5;stroke-dasharray:5.0,5.0;" x1="259.5" x2="259.5" y1="82.6094" y2="284.7188"/><line style="stroke:#181818;stroke-width:0.5;stroke-dasharray:5.0,5.0;" x1="414" x2="414" y1="82.6094" y2="284.7188"/><line style="stroke:#181818;stroke-width:0.5;stroke-dasharray:5.0,5.0;" x1="620" x2="620" y1="82.6094" y2="284.7188"/><line style="stroke:#181818;stroke-width:0.5;stroke-dasharray:5.0,5.0;" x1="710" x2="710" y1="82.6094" y2="284.7188"/><text fill="#000000" font-family="sans-serif" font-size="14" lengthAdjust="spacing" textLength="43" x="5" y="79.5332">Trader</text><ellipse cx="29.5" cy="13.5" fill="#E2E2F0" rx="8" ry="8" style="stroke:#181818;stroke-width:0.5;"/><path d="M29.5,21.5 L29.5,48.5 M16.5,29.5 L42.5,29.5 M29.5,48.5 L16.5,63.5 M29.5,48.5 L42.5,63.5 " fill="none" style="stroke:#181818;stroke-width:0.5;"/><text fill="#000000" font-family="sans-serif" font-size="14" lengthAdjust="spacing" textLength="43" x="5" y="298.252">Trader</text><ellipse cx="29.5" cy="309.8281" fill="#E2E2F0" rx="8" ry="8" style="stroke:#181818;stroke-width:0.5;"/><path d="M29.5,317.8281 L29.5,344.8281 M16.5,325.8281 L42.5,325.8281 M29.5,344.8281 L16.5,359.8281 M29.5,344.8281 L42.5,359.8281 " fill="none" style="stroke:#181818;stroke-width:0.5;"/><rect fill="#E2E2F0" height="31.6094" rx="2.5" ry="2.5" style="stroke:#181818;stroke-width:0.5;" width="26" x="246.5" y="50"/><text fill="#000000" font-family="sans-serif" font-size="14" lengthAdjust="spacing" textLength="12" x="253.5" y="71.5332">UI</text><rect fill="#E2E2F0" height="31.6094" rx="2.5" ry="2.5" style="stroke:#181818;stroke-width:0.5;" width="26" x="246.5" y="283.7188"/><text fill="#000000" font-family="sans-serif" font-size="14" lengthAdjust="spacing" textLength="12" x="253.5" y="305.252">UI</text><rect fill="#E2E2F0" height="31.6094" rx="2.5" ry="2.5" style="stroke:#181818;stroke-width:0.5;" width="69" x="380" y="50"/><text fill="#000000" font-family="sans-serif" font-size="14" lengthAdjust="spacing" textLength="55" x="387" y="71.5332">state-api</text><rect fill="#E2E2F0" height="31.6094" rx="2.5" ry="2.5" style="stroke:#181818;stroke-width:0.5;" width="69" x="380" y="283.7188"/><text fill="#000000" font-family="sans-serif" font-size="14" lengthAdjust="spacing" textLength="55" x="387" y="305.252">state-api</text><rect fill="#E2E2F0" height="31.6094" rx="2.5" ry="2.5" style="stroke:#181818;stroke-width:0.5;" width="97" x="572" y="50"/><text fill="#000000" font-family="sans-serif" font-size="14" lengthAdjust="spacing" textLength="83" x="579" y="71.5332">risk-guardian</text><rect fill="#E2E2F0" height="31.6094" rx="2.5" ry="2.5" style="stroke:#181818;stroke-width:0.5;" width="97" x="572" y="283.7188"/><text fill="#000000" font-family="sans-serif" font-size="14" lengthAdjust="spacing" textLength="83" x="579" y="305.252">risk-guardian</text><text fill="#000000" font-family="sans-serif" font-size="14" lengthAdjust="spacing" textLength="56" x="679" y="79.5332">Postgres</text><path d="M692,29 C692,19 710,19 710,19 C710,19 728,19 728,29 L728,55 C728,65 710,65 710,65 C710,65 692,65 692,55 L692,29 " fill="#E2E2F0" style="stroke:#181818;stroke-width:1.5;"/><path d="M692,29 C692,39 710,39 710,39 C710,39 728,39 728,29 " fill="none" style="stroke:#181818;stroke-width:1.5;"/><text fill="#000000" font-family="sans-serif" font-size="14" lengthAdjust="spacing" textLength="56" x="679" y="298.252">Postgres</text><path d="M692,311.3281 C692,301.3281 710,301.3281 710,301.3281 C710,301.3281 728,301.3281 728,311.3281 L728,337.3281 C728,347.3281 710,347.3281 710,347.3281 C710,347.3281 692,347.3281 692,337.3281 L692,311.3281 " fill="#E2E2F0" style="stroke:#181818;stroke-width:1.5;"/><path d="M692,311.3281 C692,321.3281 710,321.3281 710,321.3281 C710,321.3281 728,321.3281 728,311.3281 " fill="none" style="stroke:#181818;stroke-width:1.5;"/><polygon fill="#181818" points="247.5,110.9609,257.5,114.9609,247.5,118.9609,251.5,114.9609" style="stroke:#181818;stroke-width:1.0;"/><line style="stroke:#181818;stroke-width:1.0;" x1="29.5" x2="253.5" y1="114.9609" y2="114.9609"/><text fill="#000000" font-family="sans-serif" font-size="13" lengthAdjust="spacing" textLength="206" x="36.5" y="110.1045">Preview(opportunity_id, size, venue)</text><polygon fill="#181818" points="402.5,141.3125,412.5,145.3125,402.5,149.3125,406.5,145.3125" style="stroke:#181818;stroke-width:1.0;"/><line style="stroke:#181818;stroke-width:1.0;" x1="259.5" x2="408.5" y1="145.3125" y2="145.3125"/><text fill="#000000" font-family="sans-serif" font-size="13" lengthAdjust="spacing" textLength="131" x="266.5" y="140.4561">POST /actions/preview</text><polygon fill="#181818" points="698,171.6641,708,175.6641,698,179.6641,702,175.6641" style="stroke:#181818;stroke-width:1.0;"/><line style="stroke:#181818;stroke-width:1.0;" x1="414.5" x2="704" y1="175.6641" y2="175.6641"/><text fill="#000000" font-family="sans-serif" font-size="13" lengthAdjust="spacing" textLength="233" x="421.5" y="170.8076">read exposure, cooldowns, quality gates</text><polygon fill="#181818" points="608.5,202.0156,618.5,206.0156,608.5,210.0156,612.5,206.0156" style="stroke:#181818;stroke-width:1.0;"/><line style="stroke:#181818;stroke-width:1.0;" x1="414.5" x2="614.5" y1="206.0156" y2="206.0156"/><text fill="#000000" font-family="sans-serif" font-size="13" lengthAdjust="spacing" textLength="121" x="421.5" y="201.1592">evaluate(policy, plan)</text><polygon fill="#181818" points="425.5,232.3672,415.5,236.3672,425.5,240.3672,421.5,236.3672" style="stroke:#181818;stroke-width:1.0;"/><line style="stroke:#181818;stroke-width:1.0;" x1="419.5" x2="619.5" y1="236.3672" y2="236.3672"/><text fill="#000000" font-family="sans-serif" font-size="13" lengthAdjust="spacing" textLength="182" x="431.5" y="231.5107">allow + plan OR block + reason</text><polygon fill="#181818" points="270.5,262.7188,260.5,266.7188,270.5,270.7188,266.5,266.7188" style="stroke:#181818;stroke-width:1.0;"/><line style="stroke:#181818;stroke-width:1.0;" x1="264.5" x2="413.5" y1="266.7188" y2="266.7188"/><text fill="#000000" font-family="sans-serif" font-size="13" lengthAdjust="spacing" textLength="92" x="276.5" y="261.8623">preview or block</text><!--SRC=[LP3DRi8m48JlVefLJg0cujv39H0IuWHAoBbQx1MoiBp6FqdfqtVhfWUEdlbcTjUeCqUuH3GK0HECAc3CLjk0FaCp7fkg7b_bb35JXy5MTzY-kj6cUtSh68r5Nud-e0ncl68YQCwSyYrIgiv-fzG8tOUCW7SuHveipIiEWMCktkRdfpKj9FjDBKpa2wsLaC8Fsr_-D5nWWpfRzcaJ_j9AB07sEm4YeG7w2fnAb0RDx0pFFhNmAEYa7cvoILeY_K4YDA4h8gu2EwkVBGI7Vgt4-v-Apl4CRzM0KmzNn_ekRncMs2zTzPvb8v0lhj0F]--></g></svg>