<?xml version="1.0" encoding="us-ascii" standalone="no"?><svg xmlns="http://www.w3.org/2000/svg" xmlns:xlink="http://www.w3.org/1999/xlink" contentStyleType="text/css" height="289px" preserveAspectRatio="none" style="width:545px;height:289px;background:#FFFFFF;" version="1.1" viewBox="0 0 545 289" width="545px" zoomAndPan="magnify"><defs/><g><line style="stroke:#181818;stroke-width:0.5;stroke-dasharray:5.0,5.0;" x1="46" x2="46" y1="68.6094" y2="210.0156"/><line style="stroke:#181818;stroke-width:0.5;stroke-dasharray:5.0,5.0;" x1="217.5" x2="217.5" y1="68.6094" y2="210.0156"/><line style="stroke:#181818;stroke-width:0.5;stroke-dasharray:5.0,5.0;" x1="436.5" x2="436.5" y1="68.6094" y2="210.0156"/><line style="stroke:#181818;stroke-width:0.5;stroke-dasharray:5.0,5.0;" x1="507.5" x2="507.5" y1="68.6094" y2="210.0156"/><path d="M10,41 L83,41 C88,41 88,54.8047 88,54.8047 C88,54.8047 88,68.6094 83,68.6094 L10,68.6094 C5,68.6094 5,54.8047 5,54.8047 C5,54.8047 5,41 10,41 " fill="#E2E2F0" style="stroke:#181818;stroke-width:0.5;"/><path d="M83,41 C78,41 78,54.8047 78,54.8047 C78,68.6094 83,68.6094 83,68.6094 " fill="none" style="stroke:#181818;stroke-width:0.5;"/><text fill="#000000" font-family="sans-serif" font-size="14" lengthAdjust="spacing" textLength="63" x="10" y="60.5332">x:signals.*</text><path d="M10,209.0156 L83,209.0156 C88,209.0156 88,222.8203 88,222.8203 C88,222.8203 88,236.625 83,236.625 L10,236.625 C5,236.625 5,222.8203 5,222.8203 C5,222.8203 5,209.0156 10,209.0156 " fill="#E2E2F0" style="stroke:#181818;stroke-width:0.5;"/><path d="M83,209.0156 C78,209.0156 78,222.8203 78,222.8203 C78,236.625 83,236.625 83,236.625 " fill="none" style="stroke:#181818;stroke-width:0.5;"/><text fill="#000000" font-family="sans-serif" font-size="14" lengthAdjust="spacing" textLength="63" x="10" y="228.5488">x:signals.*</text><rect fill="#E2E2F0" height="31.6094" rx="2.5" ry="2.5" style="stroke:#181818;stroke-width:0.5;" width="100" x="167.5" y="36"/><text fill="#000000" font-family="sans-serif" font-size="14" lengthAdjust="spacing" textLength="86" x="174.5" y="57.5332">fusion-engine</text><rect fill="#E2E2F0" height="31.6094" rx="2.5" ry="2.5" style="stroke:#181818;stroke-width:0.5;" width="100" x="167.5" y="209.0156"/><text fill="#000000" font-family="sans-serif" font-size="14" lengthAdjust="spacing" textLength="86" x="174.5" y="230.5488">fusion-engine</text><text fill="#000000" font-family="sans-serif" font-size="14" lengthAdjust="spacing" textLength="56" x="405.5" y="65.5332">Postgres</text><path d="M418.5,15 C418.5,5 436.5,5 436.5,5 C436.5,5 454.5,5 454.5,15 L454.5,41 C454.5,51 436.5,51 436.5,51 C436.5,51 418.5,51 418.5,41 L418.5,15 " fill="#E2E2F0" style="stroke:#181818;stroke-width:1.5;"/><path d="M418.5,15 C418.5,25 436.5,25 436.5,25 C436.5,25 454.5,25 454.5,15 " fill="none" style="stroke:#181818;stroke-width:1.5;"/><text fill="#000000" font-family="sans-serif" font-size="14" lengthAdjust="spacing" textLength="56" x="405.5" y="223.5488">Postgres</text><path d="M418.5,236.625 C418.5,226.625 436.5,226.625 436.5,226.625 C436.5,226.625 454.5,226.625 454.5,236.625 L454.5,262.625 C454.5,272.625 436.5,272.625 436.5,272.625 C436.5,272.625 418.5,272.625 418.5,262.625 L418.5,236.625 " fill="#E2E2F0" style="stroke:#181818;stroke-width:1.5;"/><path d="M418.5,236.625 C418.5,246.625 436.5,246.625 436.5,246.625 C436.5,246.625 454.5,246.625 454.5,236.625 " fill="none" style="stroke:#181818;stroke-width:1.5;"/><path d="M482.5,41 L533.5,41 C538.5,41 538.5,54.8047 538.5,54.8047 C538.5,54.8047 538.5,68.6094 533.5,68.6094 L482.5,68.6094 C477.5,68.6094 477.5,54.8047 477.5,54.8047 C477.5,54.8047 477.5,41 482.5,41 " fill="#E2E2F0" style="stroke:#181818;stroke-width:0.5;"/><path d="M533.5,41 C528.5,41 528.5,54.8047 528.5,54.8047 C528.5,68.6094 533.5,68.6094 533.5,68.6094 " fill="none" style="stroke:#181818;stroke-width:0.5;"/><text fill="#000000" font-family="sans-serif" font-size="14" lengthAdjust="spacing" textLength="41" x="482.5" y="60.5332">x:opps</text><path d="M482.5,209.0156 L533.5,209.0156 C538.5,209.0156 538.5,222.8203 538.5,222.8203 C538.5,222.8203 538.5,236.625 533.5,236.625 L482.5,236.625 C477.5,236.625 477.5,222.8203 477.5,222.8203 C477.5,222.8203 477.5,209.0156 482.5,209.0156 " fill="#E2E2F0" style="stroke:#181818;stroke-width:0.5;"/><path d="M533.5,209.0156 C528.5,209.0156 528.5,222.8203 528.5,222.8203 C528.5,236.625 533.5,236.625 533.5,236.625 " fill="none" style="stroke:#181818;stroke-width:0.5;"/><text fill="#000000" font-family="sans-serif" font-size="14" lengthAdjust="spacing" textLength="41" x="482.5" y="228.5488">x:opps</text><polygon fill="#181818" points="205.5,96.9609,215.5,100.9609,205.5,104.9609,209.5,100.9609" style="stroke:#181818;stroke-width:1.0;"/><line style="stroke:#181818;stroke-width:1.0;stroke-dasharray:2.0,2.0;" x1="46.5" x2="211.5" y1="100.9609" y2="100.9609"/><text fill="#000000" font-family="sans-serif" font-size="13" lengthAdjust="spacing" textLength="147" x="53.5" y="96.1045">batch window (symbol, tf)</text><polygon fill="#181818" points="424.5,127.3125,434.5,131.3125,424.5,135.3125,428.5,131.3125" style="stroke:#181818;stroke-width:1.0;"/><line style="stroke:#181818;stroke-width:1.0;" x1="217.5" x2="430.5" y1="131.3125" y2="131.3125"/><text fill="#000000" font-family="sans-serif" font-size="13" lengthAdjust="spacing" textLength="195" x="224.5" y="126.4561">fetch calibration &amp; regime weights</text><polygon fill="#181818" points="496,157.6641,506,161.6641,496,165.6641,500,161.6641" style="stroke:#181818;stroke-width:1.0;"/><line style="stroke:#181818;stroke-width:1.0;" x1="217.5" x2="502" y1="161.6641" y2="161.6641"/><text fill="#000000" font-family="sans-serif" font-size="13" lengthAdjust="spacing" textLength="250" x="224.5" y="156.8076">Opportunity{bias, quality, confluence, links}</text><polygon fill="#181818" points="424.5,188.0156,434.5,192.0156,424.5,196.0156,428.5,192.0156" style="stroke:#181818;stroke-width:1.0;"/><line style="stroke:#181818;stroke-width:1.0;" x1="217.5" x2="430.5" y1="192.0156" y2="192.0156"/><text fill="#000000" font-family="sans-serif" font-size="13" lengthAdjust="spacing" textLength="177" x="224.5" y="187.1592">persist snapshot + provenance</text><!--SRC=[JOvDJiD038NtSmeh2yHFmW6wO54L4Aj4uWHEwYHMfvx9s4E847TdA22nzVk-zxnaoWJL-qvv4lHwVri1Aho-FBk8oNZWY69GZLavI4CoiT05UNfqHpJiKOlV1RKfaLwImzujVxKXnfzZspbNMg5f7eeAE-ZHXXbMbcDOuLgtSnzy3JRUk18NwB0lq4ZVq82U-uHMFe0hI3JncM0bdcRJNxhj2jt6699bOTi-UaQjOSb5jQs68SZeCyb0DNYMatx-ducKbDL01QFEmU0EOWfl95Y4Bm00]--></g></svg>