<?xml version="1.0" encoding="us-ascii" standalone="no"?><svg xmlns="http://www.w3.org/2000/svg" xmlns:xlink="http://www.w3.org/1999/xlink" contentStyleType="text/css" height="350px" preserveAspectRatio="none" style="width:1010px;height:350px;background:#FFFFFF;" version="1.1" viewBox="0 0 1010 350" width="1010px" zoomAndPan="magnify"><defs/><g><line style="stroke:#181818;stroke-width:0.5;stroke-dasharray:5.0,5.0;" x1="54" x2="54" y1="68.6094" y2="270.7188"/><line style="stroke:#181818;stroke-width:0.5;stroke-dasharray:5.0,5.0;" x1="357.5" x2="357.5" y1="68.6094" y2="270.7188"/><line style="stroke:#181818;stroke-width:0.5;stroke-dasharray:5.0,5.0;" x1="527.5" x2="527.5" y1="68.6094" y2="270.7188"/><line style="stroke:#181818;stroke-width:0.5;stroke-dasharray:5.0,5.0;" x1="871" x2="871" y1="68.6094" y2="270.7188"/><line style="stroke:#181818;stroke-width:0.5;stroke-dasharray:5.0,5.0;" x1="975" x2="975" y1="68.6094" y2="270.7188"/><rect fill="#E2E2F0" height="31.6094" rx="2.5" ry="2.5" style="stroke:#181818;stroke-width:0.5;" width="99" x="5" y="36"/><text fill="#000000" font-family="sans-serif" font-size="14" lengthAdjust="spacing" textLength="85" x="12" y="57.5332">metrics-poller</text><rect fill="#E2E2F0" height="31.6094" rx="2.5" ry="2.5" style="stroke:#181818;stroke-width:0.5;" width="99" x="5" y="269.7188"/><text fill="#000000" font-family="sans-serif" font-size="14" lengthAdjust="spacing" textLength="85" x="12" y="291.252">metrics-poller</text><path d="M308.5,41 L406.5,41 C411.5,41 411.5,54.8047 411.5,54.8047 C411.5,54.8047 411.5,68.6094 406.5,68.6094 L308.5,68.6094 C303.5,68.6094 303.5,54.8047 303.5,54.8047 C303.5,54.8047 303.5,41 308.5,41 " fill="#E2E2F0" style="stroke:#181818;stroke-width:0.5;"/><path d="M406.5,41 C401.5,41 401.5,54.8047 401.5,54.8047 C401.5,68.6094 406.5,68.6094 406.5,68.6094 " fill="none" style="stroke:#181818;stroke-width:0.5;"/><text fill="#000000" font-family="sans-serif" font-size="14" lengthAdjust="spacing" textLength="88" x="308.5" y="60.5332">x:events.norm</text><path d="M308.5,269.7188 L406.5,269.7188 C411.5,269.7188 411.5,283.5234 411.5,283.5234 C411.5,283.5234 411.5,297.3281 406.5,297.3281 L308.5,297.3281 C303.5,297.3281 303.5,283.5234 303.5,283.5234 C303.5,283.5234 303.5,269.7188 308.5,269.7188 " fill="#E2E2F0" style="stroke:#181818;stroke-width:0.5;"/><path d="M406.5,269.7188 C401.5,269.7188 401.5,283.5234 401.5,283.5234 C401.5,297.3281 406.5,297.3281 406.5,297.3281 " fill="none" style="stroke:#181818;stroke-width:0.5;"/><text fill="#000000" font-family="sans-serif" font-size="14" lengthAdjust="spacing" textLength="88" x="308.5" y="289.252">x:events.norm</text><rect fill="#E2E2F0" height="31.6094" rx="2.5" ry="2.5" style="stroke:#181818;stroke-width:0.5;" width="102" x="476.5" y="36"/><text fill="#000000" font-family="sans-serif" font-size="14" lengthAdjust="spacing" textLength="88" x="483.5" y="57.5332">funding-agent</text><rect fill="#E2E2F0" height="31.6094" rx="2.5" ry="2.5" style="stroke:#181818;stroke-width:0.5;" width="102" x="476.5" y="269.7188"/><text fill="#000000" font-family="sans-serif" font-size="14" lengthAdjust="spacing" textLength="88" x="483.5" y="291.252">funding-agent</text><path d="M814,41 L929,41 C934,41 934,54.8047 934,54.8047 C934,54.8047 934,68.6094 929,68.6094 L814,68.6094 C809,68.6094 809,54.8047 809,54.8047 C809,54.8047 809,41 814,41 " fill="#E2E2F0" style="stroke:#181818;stroke-width:0.5;"/><path d="M929,41 C924,41 924,54.8047 924,54.8047 C924,68.6094 929,68.6094 929,68.6094 " fill="none" style="stroke:#181818;stroke-width:0.5;"/><text fill="#000000" font-family="sans-serif" font-size="14" lengthAdjust="spacing" textLength="105" x="814" y="60.5332">x:signals.funding</text><path d="M814,269.7188 L929,269.7188 C934,269.7188 934,283.5234 934,283.5234 C934,283.5234 934,297.3281 929,297.3281 L814,297.3281 C809,297.3281 809,283.5234 809,283.5234 C809,283.5234 809,269.7188 814,269.7188 " fill="#E2E2F0" style="stroke:#181818;stroke-width:0.5;"/><path d="M929,269.7188 C924,269.7188 924,283.5234 924,283.5234 C924,297.3281 929,297.3281 929,297.3281 " fill="none" style="stroke:#181818;stroke-width:0.5;"/><text fill="#000000" font-family="sans-serif" font-size="14" lengthAdjust="spacing" textLength="105" x="814" y="289.252">x:signals.funding</text><text fill="#000000" font-family="sans-serif" font-size="14" lengthAdjust="spacing" textLength="56" x="944" y="65.5332">Postgres</text><path d="M957,15 C957,5 975,5 975,5 C975,5 993,5 993,15 L993,41 C993,51 975,51 975,51 C975,51 957,51 957,41 L957,15 " fill="#E2E2F0" style="stroke:#181818;stroke-width:1.5;"/><path d="M957,15 C957,25 975,25 975,25 C975,25 993,25 993,15 " fill="none" style="stroke:#181818;stroke-width:1.5;"/><text fill="#000000" font-family="sans-serif" font-size="14" lengthAdjust="spacing" textLength="56" x="944" y="284.252">Postgres</text><path d="M957,297.3281 C957,287.3281 975,287.3281 975,287.3281 C975,287.3281 993,287.3281 993,297.3281 L993,323.3281 C993,333.3281 975,333.3281 975,333.3281 C975,333.3281 957,333.3281 957,323.3281 L957,297.3281 " fill="#E2E2F0" style="stroke:#181818;stroke-width:1.5;"/><path d="M957,297.3281 C957,307.3281 975,307.3281 975,307.3281 C975,307.3281 993,307.3281 993,297.3281 " fill="none" style="stroke:#181818;stroke-width:1.5;"/><polygon fill="#181818" points="345.5,96.9609,355.5,100.9609,345.5,104.9609,349.5,100.9609" style="stroke:#181818;stroke-width:1.0;"/><line style="stroke:#181818;stroke-width:1.0;" x1="54.5" x2="351.5" y1="100.9609" y2="100.9609"/><text fill="#000000" font-family="sans-serif" font-size="13" lengthAdjust="spacing" textLength="279" x="61.5" y="96.1045">Event(kind=funding, fields={funding_8h, window})</text><polygon fill="#181818" points="345.5,127.3125,355.5,131.3125,345.5,135.3125,349.5,131.3125" style="stroke:#181818;stroke-width:1.0;"/><line style="stroke:#181818;stroke-width:1.0;" x1="54.5" x2="351.5" y1="131.3125" y2="131.3125"/><text fill="#000000" font-family="sans-serif" font-size="13" lengthAdjust="spacing" textLength="260" x="61.5" y="126.4561">Event(kind=oi_delta, fields={zscore, window})</text><polygon fill="#181818" points="345.5,157.6641,355.5,161.6641,345.5,165.6641,349.5,161.6641" style="stroke:#181818;stroke-width:1.0;"/><line style="stroke:#181818;stroke-width:1.0;" x1="54.5" x2="351.5" y1="161.6641" y2="161.6641"/><text fill="#000000" font-family="sans-serif" font-size="13" lengthAdjust="spacing" textLength="231" x="61.5" y="156.8076">Event(kind=liqmap, fields={cluster_dist})</text><polygon fill="#181818" points="515.5,188.0156,525.5,192.0156,515.5,196.0156,519.5,192.0156" style="stroke:#181818;stroke-width:1.0;"/><line style="stroke:#181818;stroke-width:1.0;stroke-dasharray:2.0,2.0;" x1="357.5" x2="521.5" y1="192.0156" y2="192.0156"/><text fill="#000000" font-family="sans-serif" font-size="13" lengthAdjust="spacing" textLength="146" x="364.5" y="187.1592">consume metrics window</text><polygon fill="#181818" points="963,218.3672,973,222.3672,963,226.3672,967,222.3672" style="stroke:#181818;stroke-width:1.0;"/><line style="stroke:#181818;stroke-width:1.0;" x1="527.5" x2="969" y1="222.3672" y2="222.3672"/><text fill="#000000" font-family="sans-serif" font-size="13" lengthAdjust="spacing" textLength="136" x="534.5" y="217.5107">get regime + calibration</text><polygon fill="#181818" points="859.5,248.7188,869.5,252.7188,859.5,256.7188,863.5,252.7188" style="stroke:#181818;stroke-width:1.0;"/><line style="stroke:#181818;stroke-width:1.0;" x1="527.5" x2="865.5" y1="252.7188" y2="252.7188"/><text fill="#000000" font-family="sans-serif" font-size="13" lengthAdjust="spacing" textLength="320" x="534.5" y="247.8623">Signal(kind=squeeze_risk|unwind, confidence, features)</text><!--SRC=[XP11QiCm44NtEeN8gg5nrYMGGaBYNKeW1p0JQUmEaIL78pKbRU_UiMjmDwLR_VVcYzz1J6Ie0v_qhCKKoN3H1USmpZImFXpLDMD6FNjVuHlwn4iVOZja-nVL_TRhx2tvfe16k84eDvFDr7Xml1of8J-LoaA2Cx0Wny2fYSX3ijigTJZgubbQz4hl- -g72tcx7ls5hWcTvVN7-50zlIxqJOXm-vh_uGQgBBe4atnd4oB-Apgwjj1Dcd6P4yRA4YUHbF25QEL6D1CyvnRrkEPuMaacn6uhH8D9Hsn8e4TjmD4vGgBWH-PK2dCQvlffPnaHxrX5uijdzlt1HLzJaqLlvFSrGieotVmR]--></g></svg>