<?xml version="1.0" encoding="us-ascii" standalone="no"?><svg xmlns="http://www.w3.org/2000/svg" xmlns:xlink="http://www.w3.org/1999/xlink" contentStyleType="text/css" height="903px" preserveAspectRatio="none" style="width:745px;height:903px;background:#FFFFFF;" version="1.1" viewBox="0 0 745 903" width="745px" zoomAndPan="magnify"><defs/><g><text fill="#000000" font-family="sans-serif" font-size="14" font-weight="bold" lengthAdjust="spacing" textLength="196" x="267.77" y="24.5332">Opportunity - State Machine</text><ellipse cx="553.5" cy="54.6094" fill="#222222" rx="10" ry="10" style="stroke:#222222;stroke-width:1.0;"/><g id="New"><rect fill="#F1F1F1" height="50" rx="12.5" ry="12.5" style="stroke:#181818;stroke-width:0.5;" width="50" x="528.5" y="125.6094"/><line style="stroke:#181818;stroke-width:0.5;" x1="528.5" x2="578.5" y1="153.2188" y2="153.2188"/><text fill="#000000" font-family="sans-serif" font-size="14" lengthAdjust="spacing" textLength="26" x="540.5" y="145.1426">New</text></g><g id="Scored"><rect fill="#F1F1F1" height="50" rx="12.5" ry="12.5" style="stroke:#181818;stroke-width:0.5;" width="65" x="521" y="253.6094"/><line style="stroke:#181818;stroke-width:0.5;" x1="521" x2="586" y1="281.2188" y2="281.2188"/><text fill="#000000" font-family="sans-serif" font-size="14" lengthAdjust="spacing" textLength="45" x="531" y="273.1426">Scored</text></g><g id="Previewed"><rect fill="#F1F1F1" height="50" rx="12.5" ry="12.5" style="stroke:#181818;stroke-width:0.5;" width="85" x="382" y="381.6094"/><line style="stroke:#181818;stroke-width:0.5;" x1="382" x2="467" y1="409.2188" y2="409.2188"/><text fill="#000000" font-family="sans-serif" font-size="14" lengthAdjust="spacing" textLength="65" x="392" y="401.1426">Previewed</text></g><path d="M125,509.6094 L294,509.6094 A12.5,12.5 0 0 1 306.5,522.1094 L306.5,537.2188 L112.5,537.2188 L112.5,522.1094 A12.5,12.5 0 0 1 125,509.6094 " fill="#F1F1F1" style="stroke:#F1F1F1;stroke-width:1.0;"/><rect fill="none" height="259.6094" rx="12.5" ry="12.5" style="stroke:#181818;stroke-width:0.5;" width="194" x="112.5" y="509.6094"/><line style="stroke:#181818;stroke-width:0.5;" x1="112.5" x2="306.5" y1="537.2188" y2="537.2188"/><text fill="#000000" font-family="sans-serif" font-size="14" lengthAdjust="spacing" textLength="58" x="180.5" y="529.1426">Executed</text><ellipse cx="199.5" cy="558.2188" fill="#222222" rx="10" ry="10" style="stroke:#222222;stroke-width:1.0;"/><g id="Executed.Placed"><rect fill="#F1F1F1" height="50" rx="12.5" ry="12.5" style="stroke:#181818;stroke-width:0.5;" width="63" x="168" y="605.2188"/><line style="stroke:#181818;stroke-width:0.5;" x1="168" x2="231" y1="632.8281" y2="632.8281"/><text fill="#000000" font-family="sans-serif" font-size="14" lengthAdjust="spacing" textLength="43" x="178" y="624.752">Placed</text></g><g id="Executed.Filled"><rect fill="#F1F1F1" height="50" rx="12.5" ry="12.5" style="stroke:#181818;stroke-width:0.5;" width="54" x="124.5" y="709.2188"/><line style="stroke:#181818;stroke-width:0.5;" x1="124.5" x2="178.5" y1="736.8281" y2="736.8281"/><text fill="#000000" font-family="sans-serif" font-size="14" lengthAdjust="spacing" textLength="34" x="134.5" y="728.752">Filled</text></g><g id="Executed.Rejected"><rect fill="#F1F1F1" height="50" rx="12.5" ry="12.5" style="stroke:#181818;stroke-width:0.5;" width="76" x="209.5" y="709.2188"/><line style="stroke:#181818;stroke-width:0.5;" x1="209.5" x2="285.5" y1="736.8281" y2="736.8281"/><text fill="#000000" font-family="sans-serif" font-size="14" lengthAdjust="spacing" textLength="56" x="219.5" y="728.752">Rejected</text></g><!--link *start*Executed to Placed--><g id="link_*start*Executed_Placed"><path d="M199.5,568.3688 C199.5,577.6388 199.5,586.3588 199.5,598.9988 " fill="none" id="*start*Executed-to-Placed" style="stroke:#181818;stroke-width:1.0;"/><polygon fill="#181818" points="199.5,604.9988,203.5,595.9988,199.5,599.9988,195.5,595.9988,199.5,604.9988" style="stroke:#181818;stroke-width:1.0;"/></g><!--link Placed to Filled--><g id="link_Placed_Filled"><path d="M167.6,653.0988 C161.51,658.8788 155.96,665.6588 152.5,673.2188 C147.43,684.2987 146.3592,691.8035 147.1592,703.1835 " fill="none" id="Placed-to-Filled" style="stroke:#181818;stroke-width:1.0;"/><polygon fill="#181818" points="147.58,709.1688,150.939,699.9104,147.2294,704.1811,142.9587,700.4714,147.58,709.1688" style="stroke:#181818;stroke-width:1.0;"/><text fill="#000000" font-family="sans-serif" font-size="13" lengthAdjust="spacing" textLength="71" x="153.5" y="687.7139">tx confirmed</text></g><!--link Placed to Rejected--><g id="link_Placed_Rejected"><path d="M215.76,655.6188 C219.2,661.2788 222.65,667.3588 225.5,673.2188 C231.08,684.6888 234.1438,692.2932 237.9638,703.4332 " fill="none" id="Placed-to-Rejected" style="stroke:#181818;stroke-width:1.0;"/><polygon fill="#181818" points="239.91,709.1088,240.7744,699.2979,238.2882,704.3791,233.207,701.8928,239.91,709.1088" style="stroke:#181818;stroke-width:1.0;"/><text fill="#000000" font-family="sans-serif" font-size="13" lengthAdjust="spacing" textLength="63" x="233.5" y="687.7139">venue error</text></g><g id="Blocked"><rect fill="#F1F1F1" height="50" rx="12.5" ry="12.5" style="stroke:#181818;stroke-width:0.5;" width="70" x="396.5" y="614.6094"/><line style="stroke:#181818;stroke-width:0.5;" x1="396.5" x2="466.5" y1="642.2188" y2="642.2188"/><text fill="#000000" font-family="sans-serif" font-size="14" lengthAdjust="spacing" textLength="50" x="406.5" y="634.1426">Blocked</text></g><g id="Expired"><rect fill="#F1F1F1" height="50" rx="12.5" ry="12.5" style="stroke:#181818;stroke-width:0.5;" width="67" x="537" y="847.6094"/><line style="stroke:#181818;stroke-width:0.5;" x1="537" x2="604" y1="875.2188" y2="875.2188"/><text fill="#000000" font-family="sans-serif" font-size="14" lengthAdjust="spacing" textLength="47" x="547" y="867.1426">Expired</text></g><g id="Completed"><rect fill="#F1F1F1" height="50" rx="12.5" ry="12.5" style="stroke:#181818;stroke-width:0.5;" width="88" x="323.5" y="847.6094"/><line style="stroke:#181818;stroke-width:0.5;" x1="323.5" x2="411.5" y1="875.2188" y2="875.2188"/><text fill="#000000" font-family="sans-serif" font-size="14" lengthAdjust="spacing" textLength="68" x="333.5" y="867.1426">Completed</text></g><g id="Failed"><rect fill="#F1F1F1" height="50" rx="12.5" ry="12.5" style="stroke:#181818;stroke-width:0.5;" width="59" x="7" y="847.6094"/><line style="stroke:#181818;stroke-width:0.5;" x1="7" x2="66" y1="875.2188" y2="875.2188"/><text fill="#000000" font-family="sans-serif" font-size="14" lengthAdjust="spacing" textLength="39" x="17" y="867.1426">Failed</text></g><g id="elem_GMN27"><path d="M502,610.1094 L502,635.6094 L466.54,639.6094 L502,643.6094 L502,669.1641 A0,0 0 0 0 502,669.1641 L621,669.1641 A0,0 0 0 0 621,669.1641 L621,620.1094 L611,610.1094 L502,610.1094 A0,0 0 0 0 502,610.1094 " fill="#FEFFDD" style="stroke:#181818;stroke-width:0.5;"/><path d="M611,610.1094 L611,620.1094 L621,620.1094 L611,610.1094 " fill="#FEFFDD" style="stroke:#181818;stroke-width:0.5;"/><text fill="#000000" font-family="sans-serif" font-size="13" lengthAdjust="spacing" textLength="82" x="508" y="628.6045">- reason_code</text><text fill="#000000" font-family="sans-serif" font-size="13" lengthAdjust="spacing" textLength="59" x="508" y="644.9561">- policy_id</text><text fill="#000000" font-family="sans-serif" font-size="13" lengthAdjust="spacing" textLength="98" x="508" y="661.3076">- until (cooldown)</text></g><g id="elem_GMN30"><path d="M101,851.1094 L101,893.8125 A0,0 0 0 0 101,893.8125 L288,893.8125 A0,0 0 0 0 288,893.8125 L288,861.1094 L278,851.1094 L199.83,851.1094 L201.12,769.6194 L191.83,851.1094 L101,851.1094 A0,0 0 0 0 101,851.1094 " fill="#FEFFDD" style="stroke:#181818;stroke-width:0.5;"/><path d="M278,851.1094 L278,861.1094 L288,861.1094 L278,851.1094 " fill="#FEFFDD" style="stroke:#181818;stroke-width:0.5;"/><text fill="#000000" font-family="sans-serif" font-size="13" lengthAdjust="spacing" textLength="166" x="107" y="869.6045">decision_id, txid, order_json,</text><text fill="#000000" font-family="sans-serif" font-size="13" lengthAdjust="spacing" textLength="124" x="107" y="885.9561">post-trade PnL hooks</text></g><!--link *start* to New--><g id="link_*start*_New"><path d="M553.5,64.6194 C553.5,78.4994 553.5,99.5794 553.5,119.4494 " fill="none" id="*start*-to-New" style="stroke:#181818;stroke-width:1.0;"/><polygon fill="#181818" points="553.5,125.4494,557.5,116.4494,553.5,120.4494,549.5,116.4494,553.5,125.4494" style="stroke:#181818;stroke-width:1.0;"/></g><!--link New to Scored--><g id="link_New_Scored"><path d="M553.5,175.8994 C553.5,198.2194 553.5,225.0994 553.5,247.3894 " fill="none" id="New-to-Scored" style="stroke:#181818;stroke-width:1.0;"/><polygon fill="#181818" points="553.5,253.3894,557.5,244.3894,553.5,248.3894,549.5,244.3894,553.5,253.3894" style="stroke:#181818;stroke-width:1.0;"/><text fill="#000000" font-family="sans-serif" font-size="13" lengthAdjust="spacing" textLength="138" x="554.5" y="220.1045">fusion snapshot created</text></g><!--link Scored to Previewed--><g id="link_Scored_Previewed"><path d="M528.63,303.8994 C505.78,326.2194 476.4013,354.9059 453.5913,377.1959 " fill="none" id="Scored-to-Previewed" style="stroke:#181818;stroke-width:1.0;"/><polygon fill="#181818" points="449.3,381.3894,458.5325,377.9601,452.8761,377.8948,452.9413,372.2384,449.3,381.3894" style="stroke:#181818;stroke-width:1.0;"/><text fill="#000000" font-family="sans-serif" font-size="13" lengthAdjust="spacing" textLength="98" x="498.5" y="348.1045">user/API Preview</text></g><!--link Previewed to Executed--><g id="link_Previewed_Executed"><path d="M381.77,413.0494 C348.54,419.3794 303.36,432.9294 274.5,461.6094 C260.92,475.1094 252.7765,486.2848 244.2365,503.8248 " fill="none" id="Previewed-to-Executed" style="stroke:#181818;stroke-width:1.0;"/><polygon fill="#181818" points="241.61,509.2194,249.1462,502.8786,243.7988,504.7239,241.9534,499.3765,241.61,509.2194" style="stroke:#181818;stroke-width:1.0;"/><text fill="#000000" font-family="sans-serif" font-size="13" lengthAdjust="spacing" textLength="137" x="275.5" y="476.1045">Risk OK + Exec placed</text></g><!--link Previewed to Blocked--><g id="link_Previewed_Blocked"><path d="M422.87,431.7894 C422.32,441.1094 421.77,451.8494 421.5,461.6094 C419.98,516.3694 424.8048,574.58 428.2548,608.61 " fill="none" id="Previewed-to-Blocked" style="stroke:#181818;stroke-width:1.0;"/><polygon fill="#181818" points="428.86,614.5794,431.9318,605.2218,428.3557,609.6049,423.9726,606.0287,428.86,614.5794" style="stroke:#181818;stroke-width:1.0;"/><text fill="#000000" font-family="sans-serif" font-size="13" lengthAdjust="spacing" textLength="216" x="422.5" y="476.1045">Risk Fail (exposure/cooldown/quality)</text></g><!--link Scored to Expired--><g id="link_Scored_Expired"><path d="M581.68,303.8694 C590.32,312.5194 599.21,322.8094 605.5,333.6094 C635.37,384.8794 633.49,403.1194 643.5,461.6094 C670.21,617.7394 738.54,679.7694 660.5,817.6094 C648.47,838.8594 629.919,850.3772 609.689,858.6972 " fill="none" id="Scored-to-Expired" style="stroke:#181818;stroke-width:1.0;"/><polygon fill="#181818" points="604.14,860.9794,613.985,861.2555,608.7642,859.0776,610.9421,853.8568,604.14,860.9794" style="stroke:#181818;stroke-width:1.0;"/><text fill="#000000" font-family="sans-serif" font-size="13" lengthAdjust="spacing" textLength="80" x="648.5" y="476.1045">t &gt; expires_at</text></g><!--link Blocked to Expired--><g id="link_Blocked_Expired"><path d="M429.65,664.6994 C428.11,701.4194 430.34,771.9194 464.5,817.6094 C482.12,841.1794 507.2691,853.3685 531.1591,861.2085 " fill="none" id="Blocked-to-Expired" style="stroke:#181818;stroke-width:1.0;"/><polygon fill="#181818" points="536.86,863.0794,529.5559,856.4725,532.1093,861.5203,527.0615,864.0737,536.86,863.0794" style="stroke:#181818;stroke-width:1.0;"/><text fill="#000000" font-family="sans-serif" font-size="13" lengthAdjust="spacing" textLength="190" x="465.5" y="814.1045">cooldown elapsed (no re-preview)</text></g><!--link Executed to Completed--><g id="link_Executed_Completed"><path d="M297.74,769.6194 C318.1,799.3794 334.2316,822.9777 347.4316,842.2677 " fill="none" id="Executed-to-Completed" style="stroke:#181818;stroke-width:1.0;"/><polygon fill="#181818" points="350.82,847.2194,349.0385,837.533,347.9964,843.093,342.4363,842.0508,350.82,847.2194" style="stroke:#181818;stroke-width:1.0;"/><text fill="#000000" font-family="sans-serif" font-size="13" lengthAdjust="spacing" textLength="66" x="330.5" y="814.1045">fill + journal</text></g><!--link Executed to Failed--><g id="link_Executed_Failed"><path d="M112.88,769.6194 C90.59,799.3794 72.8056,823.1261 58.3656,842.4161 " fill="none" id="Executed-to-Failed" style="stroke:#181818;stroke-width:1.0;"/><polygon fill="#181818" points="54.77,847.2194,63.3656,842.4115,57.7663,843.2166,56.9612,837.6174,54.77,847.2194" style="stroke:#181818;stroke-width:1.0;"/><text fill="#000000" font-family="sans-serif" font-size="13" lengthAdjust="spacing" textLength="79" x="89.5" y="814.1045">reject/timeout</text></g><!--SRC=[NPBBJYCn44NtzHMr90ojx5aWCGWan2k29Hf5nbqXJXoNAPT9q6Z-VMntEancqPOVnxVkBRSwzOHFCR9e3aw_iCCNDKhuOEpI1G9uFVs5NNU1ZxI5yhNvYsMX7iznaPFZW2cOc9QiQ8NAvHxsG6LdGf-EjWtFYMHwERiTD-7xiABNEx9P6_diqXgVxl17syJeZIson_XFptRzJTyOv_64Tf5J5ffQPj_pDam_il4bsUHVKzUxw8O4YXT8RPNcHc7KF8P6BIHVWfQjay0erCN1pmGEpkkzAzv4JqEEXVE-X5Xnbc3yCLSDDqXeHLQdwZR4MG5IUu43-niGnrUO3Ot0_MJGAJM6BBlYD2oSRFv7dbk51drIo8GamW9_00ANKkBUbugy65iANV5a4eUvvPxAAh9tzclkwaaEMXizzcG257giCdknDrRbJLKR4q1FrjKVfGYS5PTrPEb9vgjIumpAYscdOdh2MRZ79VCw7LJ_0W00]--></g></svg>